<svg width="30" height="30" viewBox="0 0 30 30" fill="none" xmlns="http://www.w3.org/2000/svg">
<path d="M21.2496 16.7625L15.8871 11.4625C15.7709 11.3453 15.6327 11.2524 15.4804 11.1889C15.328 11.1254 15.1646 11.0928 14.9996 11.0928C14.8346 11.0928 14.6712 11.1254 14.5189 11.1889C14.3666 11.2524 14.2283 11.3453 14.1121 11.4625L8.81213 16.7625C8.69497 16.8787 8.60198 17.017 8.53852 17.1693C8.47506 17.3216 8.44238 17.485 8.44238 17.65C8.44238 17.815 8.47506 17.9784 8.53852 18.1307C8.60198 18.283 8.69497 18.4213 8.81213 18.5375C9.04633 18.7703 9.36315 18.901 9.69338 18.901C10.0236 18.901 10.3404 18.7703 10.5746 18.5375L14.9996 14.1125L19.4246 18.5375C19.6575 18.7684 19.9717 18.8986 20.2996 18.9C20.4641 18.901 20.6272 18.8694 20.7795 18.8072C20.9318 18.745 21.0703 18.6534 21.1871 18.5375C21.3085 18.4255 21.4064 18.2905 21.4753 18.1404C21.5442 17.9903 21.5826 17.8281 21.5885 17.663C21.5943 17.498 21.5673 17.3334 21.5092 17.1789C21.451 17.0243 21.3628 16.8828 21.2496 16.7625Z" fill="#F4F4F4"/>
</svg>
