<svg width="11" height="20" viewBox="0 0 11 20" fill="none" xmlns="http://www.w3.org/2000/svg">
<path d="M8.16666 18.8333L0.499989 11.1667C0.333323 11 0.215545 10.8195 0.146656 10.625C0.0777671 10.4306 0.0427676 10.2222 0.0416565 10C0.0416565 9.77779 0.076656 9.56945 0.146656 9.37501C0.216656 9.18056 0.334434 9.00001 0.499989 8.83334L8.16666 1.16668C8.47221 0.861121 8.8611 0.708344 9.33332 0.708344C9.80554 0.708344 10.1944 0.861121 10.5 1.16668C10.8055 1.47223 10.9583 1.86112 10.9583 2.33334C10.9583 2.80557 10.8055 3.19445 10.5 3.50001L3.99999 10L10.5 16.5C10.8055 16.8056 10.9583 17.1945 10.9583 17.6667C10.9583 18.1389 10.8055 18.5278 10.5 18.8333C10.1944 19.1389 9.80554 19.2917 9.33332 19.2917C8.8611 19.2917 8.47221 19.1389 8.16666 18.8333Z" fill="white"/>
</svg>
