<svg width="11" height="20" viewBox="0 0 11 20" fill="none" xmlns="http://www.w3.org/2000/svg">
<path d="M0.499989 18.8333C0.194434 18.5278 0.0416565 18.1389 0.0416565 17.6667C0.0416565 17.1945 0.194434 16.8056 0.499989 16.5L6.99999 10L0.499989 3.50001C0.194434 3.19445 0.0416565 2.80557 0.0416565 2.33334C0.0416565 1.86112 0.194434 1.47223 0.499989 1.16668C0.805545 0.861121 1.19443 0.708344 1.66666 0.708344C2.13888 0.708344 2.52777 0.861121 2.83332 1.16668L10.5 8.83334C10.6667 9.00001 10.785 9.18056 10.855 9.37501C10.925 9.56945 10.9594 9.77779 10.9583 10C10.9583 10.2222 10.9233 10.4306 10.8533 10.625C10.7833 10.8195 10.6655 11 10.5 11.1667L2.83332 18.8333C2.52777 19.1389 2.13888 19.2917 1.66666 19.2917C1.19443 19.2917 0.805545 19.1389 0.499989 18.8333Z" fill="white"/>
</svg>
