<svg width="20" height="20" viewBox="0 0 20 20" fill="none" xmlns="http://www.w3.org/2000/svg">
<path d="M9.99999 14.6875C9.75145 14.6864 9.51317 14.5883 9.33593 14.4141L3.08593 8.16407C2.90981 7.98795 2.81087 7.74908 2.81087 7.50001C2.81087 7.25094 2.90981 7.01207 3.08593 6.83595C3.26205 6.65983 3.50092 6.56088 3.74999 6.56088C3.99907 6.56088 4.23794 6.65983 4.41406 6.83595L9.99999 12.4219L15.5859 6.83595C15.7621 6.65983 16.0009 6.56088 16.25 6.56088C16.4991 6.56088 16.7379 6.65983 16.9141 6.83595C17.0902 7.01207 17.1891 7.25094 17.1891 7.50001C17.1891 7.74908 17.0902 7.98795 16.9141 8.16407L10.6641 14.4141C10.4868 14.5883 10.2485 14.6864 9.99999 14.6875Z" fill="#00010F"/>
</svg>
