<svg width="48" height="48" viewBox="0 0 48 48" fill="none" xmlns="http://www.w3.org/2000/svg">
<g clip-path="url(#clip0_64_84)">
<path d="M24 4C20.0444 4 16.1776 5.17298 12.8886 7.37061C9.59962 9.56823 7.03617 12.6918 5.52242 16.3463C4.00867 20.0009 3.6126 24.0222 4.3843 27.9018C5.15601 31.7814 7.06082 35.3451 9.85787 38.1421C12.6549 40.9392 16.2186 42.844 20.0982 43.6157C23.9778 44.3874 27.9992 43.9913 31.6537 42.4776C35.3082 40.9638 38.4318 38.4004 40.6294 35.1114C42.827 31.8224 44 27.9556 44 24C44 18.6957 41.8929 13.6086 38.1421 9.85786C34.3914 6.10714 29.3043 4 24 4ZM37.0625 17.2875L20.6375 33.7L10.9375 24C10.606 23.6685 10.4197 23.2188 10.4197 22.75C10.4197 22.2812 10.606 21.8315 10.9375 21.5C11.269 21.1685 11.7187 20.9822 12.1875 20.9822C12.6563 20.9822 13.106 21.1685 13.4375 21.5L20.6625 28.725L34.5875 14.8125C34.7517 14.6483 34.9465 14.5181 35.161 14.4293C35.3755 14.3405 35.6054 14.2947 35.8375 14.2947C36.0696 14.2947 36.2995 14.3405 36.514 14.4293C36.7285 14.5181 36.9234 14.6483 37.0875 14.8125C37.2517 14.9767 37.3819 15.1715 37.4707 15.386C37.5595 15.6005 37.6053 15.8304 37.6053 16.0625C37.6053 16.2946 37.5595 16.5245 37.4707 16.739C37.3819 16.9535 37.2517 17.1483 37.0875 17.3125L37.0625 17.2875Z" fill="#FF9900"/>
</g>
<defs>
<clipPath id="clip0_64_84">
<rect width="48" height="48" fill="white"/>
</clipPath>
</defs>
</svg>
