<svg width="40" height="40" viewBox="0 0 40 40" fill="none" xmlns="http://www.w3.org/2000/svg">
<path d="M20 5C16.0218 5 12.2064 6.58035 9.3934 9.3934C6.58035 12.2064 5 16.0218 5 20C5 23.9782 6.58035 27.7936 9.3934 30.6066C12.2064 33.4196 16.0218 35 20 35C23.9782 35 27.7936 33.4196 30.6066 30.6066C33.4196 27.7936 35 23.9782 35 20C35 16.0218 33.4196 12.2064 30.6066 9.3934C27.7936 6.58035 23.9782 5 20 5ZM25.625 12.5C26.1223 12.5 26.5992 12.6975 26.9508 13.0492C27.3025 13.4008 27.5 13.8777 27.5 14.375C27.5 14.8723 27.3025 15.3492 26.9508 15.7008C26.5992 16.0525 26.1223 16.25 25.625 16.25C25.1277 16.25 24.6508 16.0525 24.2992 15.7008C23.9475 15.3492 23.75 14.8723 23.75 14.375C23.75 13.8777 23.9475 13.4008 24.2992 13.0492C24.6508 12.6975 25.1277 12.5 25.625 12.5ZM14.375 12.5C14.8723 12.5 15.3492 12.6975 15.7008 13.0492C16.0525 13.4008 16.25 13.8777 16.25 14.375C16.25 14.8723 16.0525 15.3492 15.7008 15.7008C15.3492 16.0525 14.8723 16.25 14.375 16.25C13.8777 16.25 13.4008 16.0525 13.0492 15.7008C12.6975 15.3492 12.5 14.8723 12.5 14.375C12.5 13.8777 12.6975 13.4008 13.0492 13.0492C13.4008 12.6975 13.8777 12.5 14.375 12.5ZM25.1281 28.7469C23.96 29.1709 22.6713 29.1141 21.5449 28.5889C20.4186 28.0637 19.5467 27.113 19.1206 25.9456C18.8645 25.2453 18.3411 24.6751 17.6651 24.3602C16.9892 24.0453 16.216 24.0112 15.515 24.2656C14.8773 24.4988 14.3453 24.9545 14.0169 25.5488C13.6886 26.1431 13.586 26.836 13.7281 27.5H11.8288C11.696 26.4454 11.9249 25.3771 12.478 24.4694C13.0311 23.5618 13.8757 22.8686 14.8737 22.5031C16.0419 22.0791 17.3306 22.1359 18.4569 22.6611C19.5832 23.1863 20.4551 24.137 20.8813 25.3044C21.1374 26.0047 21.6608 26.5749 22.3367 26.8898C23.0127 27.2047 23.7859 27.2388 24.4869 26.9844C25.1246 26.7512 25.6566 26.2955 25.9849 25.7012C26.3133 25.1069 26.4158 24.414 26.2738 23.75H28.175C28.3077 24.8046 28.0788 25.8729 27.5257 26.7806C26.9726 27.6882 26.1281 28.3814 25.13 28.7469H25.1281Z" fill="#00010F"/>
</svg>
