<svg width="28" height="29" viewBox="0 0 28 29" fill="none" xmlns="http://www.w3.org/2000/svg">
<path d="M14.0002 3.07275C7.5835 3.07275 2.3335 8.17315 2.3335 14.4549C2.3335 20.1347 6.6035 24.8489 12.1802 25.7008V17.7492H9.21683V14.4549H12.1802V11.9445C12.1802 9.09327 13.9185 7.52566 16.5902 7.52566C17.8618 7.52566 19.1918 7.74149 19.1918 7.74149V10.5473H17.7218C16.2752 10.5473 15.8202 11.422 15.8202 12.3194V14.4549H19.0635L18.5385 17.7492H15.8202V25.7008C18.5693 25.2781 21.0727 23.9123 22.8784 21.85C24.6841 19.7878 25.6731 17.1649 25.6668 14.4549C25.6668 8.17315 20.4168 3.07275 14.0002 3.07275Z" fill="#FF9900"/>
</svg>
