<svg width="28" height="29" viewBox="0 0 28 29" fill="none" xmlns="http://www.w3.org/2000/svg">
<path d="M13.9998 14.5465C14.6415 14.5465 15.191 14.3239 15.6483 13.8786C16.1057 13.4333 16.3339 12.8986 16.3332 12.2746C16.3332 11.6499 16.1045 11.1148 15.6472 10.6695C15.1898 10.2242 14.6407 10.002 13.9998 10.0027C13.3582 10.0027 12.8087 10.2254 12.3513 10.6707C11.894 11.116 11.6657 11.6506 11.6665 12.2746C11.6665 12.8994 11.8952 13.4344 12.3525 13.8797C12.8098 14.325 13.3589 14.5473 13.9998 14.5465ZM13.9998 25.48C13.8443 25.48 13.6887 25.4516 13.5332 25.3948C13.3776 25.338 13.2415 25.2623 13.1248 25.1676C10.2859 22.7253 8.1665 20.458 6.7665 18.3656C5.3665 16.2732 4.6665 14.3186 4.6665 12.5018C4.6665 9.66195 5.60489 7.39953 7.48167 5.71454C9.35845 4.02955 11.5312 3.18706 13.9998 3.18706C16.4693 3.18706 18.6424 4.02955 20.5192 5.71454C22.3959 7.39953 23.3339 9.66195 23.3332 12.5018C23.3332 14.3193 22.6332 16.2743 21.2332 18.3667C19.8332 20.4591 17.7137 22.7261 14.8748 25.1676C14.7582 25.2623 14.6221 25.338 14.4665 25.3948C14.3109 25.4516 14.1554 25.48 13.9998 25.48Z" fill="#FF9900"/>
</svg>
