<svg width="28" height="29" viewBox="0 0 28 29" fill="none" xmlns="http://www.w3.org/2000/svg">
<path d="M23.3333 14.4933C23.0222 14.4933 22.7449 14.3842 22.5015 14.1661C22.2581 13.948 22.1177 13.6784 22.0803 13.3573C21.8276 11.5966 21.0642 10.096 19.7902 8.85557C18.5162 7.61512 16.975 6.87221 15.1667 6.62684C14.8361 6.58898 14.5588 6.45645 14.3348 6.22926C14.1108 6.00207 13.9992 5.72755 14 5.4057C14 5.08385 14.1167 4.81387 14.35 4.59577C14.5833 4.37767 14.8556 4.28793 15.1667 4.32655C17.6167 4.5916 19.7069 5.56663 21.4375 7.25161C23.1681 8.9366 24.1694 10.9718 24.4417 13.3573C24.4806 13.6602 24.388 13.9253 24.164 14.1525C23.94 14.3797 23.6631 14.4933 23.3333 14.4933ZM18.4625 14.4933C18.2097 14.4933 17.9861 14.4081 17.7917 14.2377C17.5972 14.0673 17.4514 13.8401 17.3542 13.5561C17.1986 13.0071 16.9019 12.5194 16.464 12.093C16.0261 11.6667 15.5256 11.3781 14.9625 11.2274C14.6708 11.1328 14.4375 10.9908 14.2625 10.8014C14.0875 10.6121 14 10.3849 14 10.1199C14 9.74123 14.1361 9.43339 14.4083 9.19635C14.6806 8.95932 14.9819 8.87905 15.3125 8.95553C16.4014 9.20166 17.3398 9.70829 18.1277 10.4754C18.9156 11.2426 19.4355 12.1559 19.6875 13.2153C19.7653 13.5372 19.6778 13.8306 19.425 14.0957C19.1722 14.3607 18.8514 14.4933 18.4625 14.4933ZM23.275 24.7168C20.7667 24.7168 18.3213 24.1723 15.939 23.0833C13.5567 21.9943 11.4469 20.5554 9.60983 18.7667C7.77272 16.978 6.29495 14.9238 5.1765 12.6042C4.05806 10.2846 3.49922 7.90403 3.5 5.4625C3.5 5.12171 3.61667 4.83773 3.85 4.61054C4.08333 4.38335 4.375 4.26975 4.725 4.26975H9.45C9.72222 4.26975 9.96528 4.35495 10.1792 4.52534C10.3931 4.69573 10.5194 4.91346 10.5583 5.17851L11.3167 9.15433C11.3556 9.41938 11.3505 9.66096 11.3015 9.87906C11.2525 10.0972 11.1409 10.291 10.9667 10.4607L8.16667 13.2437C8.98333 14.6069 10.0042 15.8848 11.2292 17.0776C12.4542 18.2703 13.8056 19.3021 15.2833 20.173L18.025 17.5035C18.2 17.3331 18.4287 17.2055 18.711 17.1207C18.9933 17.0359 19.2702 17.012 19.5417 17.0492L23.5667 17.8443C23.8389 17.9011 24.0625 18.0291 24.2375 18.2283C24.4125 18.4274 24.5 18.6592 24.5 18.9235V23.5241C24.5 23.8648 24.3833 24.1488 24.15 24.376C23.9167 24.6032 23.625 24.7168 23.275 24.7168Z" fill="#FF9900"/>
</svg>
