<svg width="28" height="28" viewBox="0 0 28 28" fill="none" xmlns="http://www.w3.org/2000/svg">
<path d="M9.10016 2.92082H18.9002C22.6335 2.92082 25.6668 5.87428 25.6668 9.50931V19.0513C25.6668 20.7986 24.9539 22.4745 23.6849 23.71C22.4159 24.9456 20.6948 25.6398 18.9002 25.6398H9.10016C5.36683 25.6398 2.3335 22.6863 2.3335 19.0513V9.50931C2.3335 7.76193 3.04641 6.08613 4.31541 4.85054C5.5844 3.61496 7.30553 2.92082 9.10016 2.92082ZM8.86683 5.19271C7.75292 5.19271 6.68463 5.62356 5.89698 6.39047C5.10933 7.15739 4.66683 8.19754 4.66683 9.28212V19.2785C4.66683 21.539 6.54516 23.3679 8.86683 23.3679H19.1335C20.2474 23.3679 21.3157 22.937 22.1033 22.1701C22.891 21.4032 23.3335 20.363 23.3335 19.2785V9.28212C23.3335 7.02159 21.4552 5.19271 19.1335 5.19271H8.86683ZM20.1252 6.89663C20.5119 6.89663 20.8829 7.04623 21.1564 7.31252C21.4299 7.57881 21.5835 7.93998 21.5835 8.31657C21.5835 8.69316 21.4299 9.05432 21.1564 9.32061C20.8829 9.5869 20.5119 9.7365 20.1252 9.7365C19.7384 9.7365 19.3675 9.5869 19.094 9.32061C18.8205 9.05432 18.6668 8.69316 18.6668 8.31657C18.6668 7.93998 18.8205 7.57881 19.094 7.31252C19.3675 7.04623 19.7384 6.89663 20.1252 6.89663ZM14.0002 8.60055C15.5473 8.60055 17.031 9.19895 18.125 10.2641C19.2189 11.3293 19.8335 12.7739 19.8335 14.2803C19.8335 15.7866 19.2189 17.2313 18.125 18.2965C17.031 19.3616 15.5473 19.96 14.0002 19.96C12.4531 19.96 10.9693 19.3616 9.87537 18.2965C8.78141 17.2313 8.16683 15.7866 8.16683 14.2803C8.16683 12.7739 8.78141 11.3293 9.87537 10.2641C10.9693 9.19895 12.4531 8.60055 14.0002 8.60055ZM14.0002 10.8724C13.0719 10.8724 12.1817 11.2315 11.5253 11.8706C10.8689 12.5097 10.5002 13.3765 10.5002 14.2803C10.5002 15.1841 10.8689 16.0509 11.5253 16.69C12.1817 17.3291 13.0719 17.6881 14.0002 17.6881C14.9284 17.6881 15.8187 17.3291 16.475 16.69C17.1314 16.0509 17.5002 15.1841 17.5002 14.2803C17.5002 13.3765 17.1314 12.5097 16.475 11.8706C15.8187 11.2315 14.9284 10.8724 14.0002 10.8724Z" fill="#FF9900"/>
</svg>
