<svg width="28" height="28" viewBox="0 0 28 28" fill="none" xmlns="http://www.w3.org/2000/svg">
<path d="M26.2035 7.51786C25.3052 7.91544 24.3369 8.17671 23.3335 8.30167C24.3602 7.69961 25.1535 6.74542 25.5269 5.59811C24.5585 6.16608 23.4852 6.56367 22.3535 6.79086C21.4319 5.81394 20.1369 5.24597 18.6669 5.24597C15.9252 5.24597 13.6852 7.42699 13.6852 10.1192C13.6852 10.5054 13.7319 10.8803 13.8135 11.2324C9.66021 11.0279 5.96188 9.08547 3.50021 6.14337C3.06854 6.85901 2.82354 7.69961 2.82354 8.58565C2.82354 10.2782 3.69854 11.7777 5.05188 12.6296C4.22354 12.6296 3.45354 12.4024 2.77688 12.0616V12.0957C2.77688 14.4585 4.50354 16.435 6.79021 16.8781C6.05606 17.0737 5.28532 17.1009 4.53854 16.9576C4.85542 17.926 5.476 18.7733 6.31306 19.3805C7.15012 19.9877 8.16156 20.3242 9.20521 20.3427C7.43611 21.7063 5.2432 22.4434 2.98688 22.4328C2.59021 22.4328 2.19354 22.4101 1.79688 22.3647C4.01354 23.7505 6.65021 24.5571 9.47354 24.5571C18.6669 24.5571 23.7185 17.128 23.7185 10.6872C23.7185 10.4713 23.7185 10.2669 23.7069 10.051C24.6869 9.36945 25.5269 8.50614 26.2035 7.51786Z" fill="#FF9900"/>
</svg>
