<svg width="40" height="40" viewBox="0 0 40 40" fill="none" xmlns="http://www.w3.org/2000/svg">
<path d="M20 18.5C21.9891 18.5 23.8968 19.2902 25.3033 20.6967C26.7098 22.1032 27.5 24.0109 27.5 26V35H12.5V26C12.5 24.0109 13.2902 22.1032 14.6967 20.6967C16.1032 19.2902 18.0109 18.5 20 18.5ZM9.932 23.009C9.69329 23.8142 9.55227 24.6451 9.512 25.484L9.5 26V35H5V28.25C4.9997 26.9564 5.47704 25.7082 6.34045 24.7448C7.20386 23.7815 8.39255 23.1708 9.6785 23.03L9.932 23.009ZM30.068 23.009C31.4029 23.0904 32.6564 23.6779 33.5729 24.6519C34.4894 25.6258 34.9998 26.9127 35 28.25V35H30.5V26C30.5 24.9605 30.35 23.957 30.068 23.009ZM10.25 14C11.2446 14 12.1984 14.3951 12.9017 15.0983C13.6049 15.8016 14 16.7554 14 17.75C14 18.7446 13.6049 19.6984 12.9017 20.4017C12.1984 21.1049 11.2446 21.5 10.25 21.5C9.25544 21.5 8.30161 21.1049 7.59835 20.4017C6.89509 19.6984 6.5 18.7446 6.5 17.75C6.5 16.7554 6.89509 15.8016 7.59835 15.0983C8.30161 14.3951 9.25544 14 10.25 14ZM29.75 14C30.7446 14 31.6984 14.3951 32.4016 15.0983C33.1049 15.8016 33.5 16.7554 33.5 17.75C33.5 18.7446 33.1049 19.6984 32.4016 20.4017C31.6984 21.1049 30.7446 21.5 29.75 21.5C28.7554 21.5 27.8016 21.1049 27.0984 20.4017C26.3951 19.6984 26 18.7446 26 17.75C26 16.7554 26.3951 15.8016 27.0984 15.0983C27.8016 14.3951 28.7554 14 29.75 14ZM20 5C21.5913 5 23.1174 5.63214 24.2426 6.75736C25.3679 7.88258 26 9.4087 26 11C26 12.5913 25.3679 14.1174 24.2426 15.2426C23.1174 16.3679 21.5913 17 20 17C18.4087 17 16.8826 16.3679 15.7574 15.2426C14.6321 14.1174 14 12.5913 14 11C14 9.4087 14.6321 7.88258 15.7574 6.75736C16.8826 5.63214 18.4087 5 20 5Z" fill="#F4F4F4"/>
</svg>
