<svg width="40" height="40" viewBox="0 0 40 40" fill="none" xmlns="http://www.w3.org/2000/svg">
<path d="M32 8H8C6.335 8 5.015 9.335 5.015 11L5 29C5 30.665 6.335 32 8 32H32C33.665 32 35 30.665 35 29V11C35 9.335 33.665 8 32 8ZM18.5 17H14V18.5H18.5C19.325 18.5 20 19.175 20 20V24.5C20 25.325 19.325 26 18.5 26H17C17 26.825 16.325 27.5 15.5 27.5C14.675 27.5 14 26.825 14 26H12.5C11.675 26 11 25.325 11 24.5C11 23.675 11.675 23 12.5 23H17V21.5H12.5C11.675 21.5 11 20.825 11 20V15.5C11 14.675 11.675 14 12.5 14H14C14 13.175 14.675 12.5 15.5 12.5C16.325 12.5 17 13.175 17 14H18.5C19.325 14 20 14.675 20 15.5C20 16.325 19.325 17 18.5 17ZM25.475 25.85L23 23.375H29L26.525 25.85C26.24 26.135 25.76 26.135 25.475 25.85ZM23 17L25.475 14.525C25.775 14.225 26.24 14.225 26.54 14.525L29 17H23Z" fill="#F4F4F4"/>
</svg>
