<svg width="40" height="40" viewBox="0 0 40 40" fill="none" xmlns="http://www.w3.org/2000/svg">
<path d="M11.1667 35C10.3611 35 9.6461 34.7361 9.02165 34.2083C8.3961 33.6806 8.01388 33.0139 7.87499 32.2083L5.33332 16.9583C5.24999 16.4583 5.36832 16.0072 5.68832 15.605C6.00721 15.2017 6.43054 15 6.95832 15H33.0417C33.5694 15 33.9928 15.2017 34.3117 15.605C34.6317 16.0072 34.75 16.4583 34.6667 16.9583L32.125 32.2083C31.9861 33.0139 31.6044 33.6806 30.98 34.2083C30.3544 34.7361 29.6389 35 28.8333 35H11.1667ZM16.6667 25H23.3333C23.8055 25 24.2017 24.84 24.5217 24.52C24.8405 24.2011 25 23.8056 25 23.3333C25 22.8611 24.8405 22.465 24.5217 22.145C24.2017 21.8261 23.8055 21.6667 23.3333 21.6667H16.6667C16.1944 21.6667 15.7989 21.8261 15.48 22.145C15.16 22.465 15 22.8611 15 23.3333C15 23.8056 15.16 24.2011 15.48 24.52C15.7989 24.84 16.1944 25 16.6667 25ZM9.99999 13.3333C9.52777 13.3333 9.13165 13.1739 8.81165 12.855C8.49277 12.535 8.33332 12.1389 8.33332 11.6667C8.33332 11.1944 8.49277 10.7983 8.81165 10.4783C9.13165 10.1594 9.52777 10 9.99999 10H30C30.4722 10 30.8678 10.1594 31.1867 10.4783C31.5067 10.7983 31.6667 11.1944 31.6667 11.6667C31.6667 12.1389 31.5067 12.535 31.1867 12.855C30.8678 13.1739 30.4722 13.3333 30 13.3333H9.99999ZM13.3333 8.33333C12.8611 8.33333 12.465 8.17333 12.145 7.85333C11.8261 7.53444 11.6667 7.13889 11.6667 6.66667C11.6667 6.19444 11.8261 5.79833 12.145 5.47833C12.465 5.15944 12.8611 5 13.3333 5H26.6667C27.1389 5 27.5344 5.15944 27.8533 5.47833C28.1733 5.79833 28.3333 6.19444 28.3333 6.66667C28.3333 7.13889 28.1733 7.53444 27.8533 7.85333C27.5344 8.17333 27.1389 8.33333 26.6667 8.33333H13.3333Z" fill="#F4F4F4"/>
</svg>
