<svg width="40" height="40" viewBox="0 0 40 40" fill="none" xmlns="http://www.w3.org/2000/svg">
<path d="M20 5C11.72 5 5 11.72 5 20C5 28.28 11.72 35 20 35C28.28 35 35 28.28 35 20C35 11.72 28.28 5 20 5ZM31.19 15.68L27.02 17.405C26.6443 16.3942 26.0543 15.4767 25.2904 14.7154C24.5266 13.9542 23.6071 13.3673 22.595 12.995L24.32 8.825C27.47 10.025 29.975 12.53 31.19 15.68ZM20 24.5C17.51 24.5 15.5 22.49 15.5 20C15.5 17.51 17.51 15.5 20 15.5C22.49 15.5 24.5 17.51 24.5 20C24.5 22.49 22.49 24.5 20 24.5ZM15.695 8.81L17.45 12.98C16.426 13.3532 15.4956 13.9451 14.7236 14.7145C13.9516 15.4838 13.3566 16.4122 12.98 17.435L8.81 15.695C9.41148 14.1292 10.3352 12.7073 11.5212 11.5212C12.7073 10.3352 14.1292 9.41148 15.695 8.81ZM8.81 24.305L12.98 22.58C13.354 23.6001 13.9465 24.5261 14.7161 25.293C15.4857 26.06 16.4136 26.6494 17.435 27.02L15.68 31.19C14.1176 30.5858 12.699 29.661 11.5158 28.4751C10.3325 27.2893 9.41081 25.8687 8.81 24.305ZM24.32 31.19L22.595 27.02C23.6118 26.6433 24.5344 26.0496 25.2985 25.2802C26.0627 24.5109 26.6501 23.5843 27.02 22.565L31.19 24.32C30.5865 25.8805 29.6637 27.2976 28.4807 28.4807C27.2976 29.6637 25.8805 30.5865 24.32 31.19Z" fill="#F4F4F4"/>
</svg>
