<svg width="40" height="40" viewBox="0 0 40 40" fill="none" xmlns="http://www.w3.org/2000/svg">
<path d="M31.6667 5H8.33333C6.5 5 5 6.5 5 8.33333V31.6667C5 33.5 6.5 35 8.33333 35H31.6667C33.5 35 35 33.5 35 31.6667V8.33333C35 6.5 33.5 5 31.6667 5ZM13.3333 28.3333C12.4167 28.3333 11.6667 27.5833 11.6667 26.6667V18.3333C11.6667 17.4167 12.4167 16.6667 13.3333 16.6667C14.25 16.6667 15 17.4167 15 18.3333V26.6667C15 27.5833 14.25 28.3333 13.3333 28.3333ZM20 28.3333C19.0833 28.3333 18.3333 27.5833 18.3333 26.6667V13.3333C18.3333 12.4167 19.0833 11.6667 20 11.6667C20.9167 11.6667 21.6667 12.4167 21.6667 13.3333V26.6667C21.6667 27.5833 20.9167 28.3333 20 28.3333ZM26.6667 28.3333C25.75 28.3333 25 27.5833 25 26.6667V23.3333C25 22.4167 25.75 21.6667 26.6667 21.6667C27.5833 21.6667 28.3333 22.4167 28.3333 23.3333V26.6667C28.3333 27.5833 27.5833 28.3333 26.6667 28.3333Z" fill="#F4F4F4"/>
</svg>
