<svg width="40" height="40" viewBox="0 0 40 40" fill="none" xmlns="http://www.w3.org/2000/svg">
<path d="M20.0058 15.5245C18.9473 15.5245 17.9561 15.9351 17.2056 16.6856C16.4587 17.4361 16.0445 18.4273 16.0445 19.4857C16.0445 20.5442 16.4587 21.5354 17.2056 22.2859C17.9561 23.0328 18.9473 23.447 20.0058 23.447C21.0642 23.447 22.0554 23.0328 22.8059 22.2859C23.5528 21.5354 23.967 20.5442 23.967 19.4857C23.967 18.4273 23.5528 17.4361 22.8059 16.6856C22.4393 16.3162 22.003 16.0234 21.5224 15.824C21.0417 15.6247 20.5261 15.5229 20.0058 15.5245ZM34.6012 23.8612L32.286 21.8823C32.3958 21.2097 32.4524 20.523 32.4524 19.8397C32.4524 19.1565 32.3958 18.4662 32.286 17.7972L34.6012 15.8183C34.7761 15.6686 34.9013 15.4692 34.9601 15.2466C35.0189 15.024 35.0085 14.7888 34.9304 14.5722L34.8986 14.4802C34.2614 12.6985 33.3067 11.0469 32.0807 9.6056L32.017 9.53126C31.8681 9.35621 31.6697 9.23038 31.4479 9.17034C31.2261 9.11031 30.9913 9.11889 30.7744 9.19496L27.9 10.218C26.838 9.34718 25.6556 8.66041 24.3741 8.18251L23.8183 5.17705C23.7764 4.95064 23.6666 4.74235 23.5034 4.57984C23.3403 4.41734 23.1316 4.30832 22.905 4.26727L22.8094 4.24957C20.9686 3.91681 19.0287 3.91681 17.1879 4.24957L17.0923 4.26727C16.8658 4.30832 16.657 4.41734 16.4939 4.57984C16.3308 4.74235 16.2209 4.95064 16.179 5.17705L15.6197 8.19667C14.3503 8.67838 13.1679 9.36348 12.1186 10.2251L9.22291 9.19496C9.00614 9.11829 8.77117 9.1094 8.54923 9.16947C8.32729 9.22954 8.12888 9.35572 7.98037 9.53126L7.91665 9.6056C6.69284 11.0485 5.73838 12.6996 5.09881 14.4802L5.06695 14.5722C4.90765 15.0147 5.03863 15.5103 5.39617 15.8183L7.73965 17.8184C7.62991 18.4839 7.57681 19.1636 7.57681 19.8362C7.57681 20.5159 7.62991 21.1956 7.73965 21.854L5.40325 23.8541C5.22835 24.0038 5.10318 24.2032 5.04437 24.4258C4.98557 24.6484 4.99591 24.8836 5.07403 25.1002L5.10589 25.1922C5.74663 26.9729 6.69181 28.619 7.92373 30.0668L7.98745 30.1412C8.13632 30.3162 8.33474 30.442 8.55655 30.5021C8.77836 30.5621 9.01315 30.5535 9.22999 30.4775L12.1257 29.4473C13.1806 30.3146 14.3559 31.0014 15.6268 31.4757L16.1861 34.4954C16.228 34.7218 16.3379 34.9301 16.501 35.0926C16.6641 35.2551 16.8728 35.3641 17.0994 35.4051L17.195 35.4228C19.0539 35.7574 20.9576 35.7574 22.8165 35.4228L22.9121 35.4051C23.1387 35.3641 23.3474 35.2551 23.5105 35.0926C23.6737 34.9301 23.7835 34.7218 23.8254 34.4954L24.3812 31.4899C25.6627 31.0085 26.845 30.3252 27.907 29.4544L30.7815 30.4775C30.9983 30.5541 31.2333 30.563 31.4552 30.5029C31.6771 30.4429 31.8756 30.3167 32.0241 30.1412L32.0878 30.0668C33.3197 28.6119 34.2649 26.9729 34.9056 25.1922L34.9375 25.1002C35.0897 24.6612 34.9587 24.1692 34.6012 23.8612ZM20.0058 25.7091C16.5684 25.7091 13.7824 22.9231 13.7824 19.4857C13.7824 16.0484 16.5684 13.2624 20.0058 13.2624C23.4431 13.2624 26.2291 16.0484 26.2291 19.4857C26.2291 22.9231 23.4431 25.7091 20.0058 25.7091Z" fill="#F4F4F4"/>
</svg>
