<svg width="40" height="40" viewBox="0 0 40 40" fill="none" xmlns="http://www.w3.org/2000/svg">
<path d="M34.9151 23.7089L34.9466 23.8019L34.9811 23.9519L34.9961 24.1019V33.8751C34.996 34.1474 34.8972 34.4104 34.7179 34.6153C34.5386 34.8202 34.2911 34.9532 34.0212 34.9895L33.8712 35H6.12491C5.85308 35 5.59044 34.9015 5.38557 34.7229C5.18071 34.5442 5.04747 34.2974 5.0105 34.0281L5 33.8751V24.1259L5.003 24.0479L5.018 23.9189C5.03322 23.8401 5.05685 23.7631 5.08849 23.6894L9.22817 14.6616C9.30625 14.4909 9.42579 14.3425 9.5759 14.2299C9.72601 14.1172 9.90192 14.0439 10.0876 14.0167L10.2496 14.0062L14.0593 14.0047L12.8744 16.0595L12.7739 16.2545H10.9695L7.87677 23.0009H32.1029L29.0626 16.4825L30.3555 14.2371C30.456 14.3121 30.543 14.4066 30.6135 14.5131L30.693 14.6556L34.9151 23.7089ZM22.0462 5.08635L22.1842 5.15385L29.9655 9.65799C30.4575 9.94297 30.6525 10.5444 30.444 11.0574L30.3765 11.1954L26.1663 18.5013H27.8732C28.1602 18.4984 28.4375 18.6053 28.6483 18.8002C28.8591 18.9951 28.9874 19.2631 29.0069 19.5495C29.0265 19.8359 28.9358 20.1189 28.7535 20.3407C28.5712 20.5624 28.311 20.706 28.0262 20.7421L27.8732 20.7526L24.8704 20.7511V20.7556H18.7524L18.7479 20.7511H12.1244C11.8412 20.7485 11.5694 20.6391 11.3633 20.4448C11.1572 20.2505 11.032 19.9856 11.0127 19.703C10.9934 19.4204 11.0814 19.1409 11.2591 18.9204C11.4368 18.6998 11.6912 18.5545 11.9715 18.5133L12.1244 18.5028L14.8587 18.5013L14.5857 18.3438C14.3511 18.2071 14.1736 17.9902 14.086 17.7332C13.9984 17.4761 14.0065 17.196 14.1088 16.9444L14.1748 16.8064L20.6498 5.56331C20.9347 5.06985 21.5347 4.87337 22.0462 5.08335V5.08635ZM22.0312 7.66615L16.6826 16.9564L19.3494 18.5013H23.5745L27.8717 11.0424L22.0342 7.66315L22.0312 7.66615Z" fill="#F4F4F4"/>
</svg>
