<svg width="18" height="11" viewBox="0 0 18 11" fill="none" xmlns="http://www.w3.org/2000/svg">
<path d="M9 10.574C8.78475 10.574 8.5765 10.5336 8.37525 10.4529C8.17291 10.3722 8.00448 10.2646 7.86996 10.13L0.443946 2.70404C0.147981 2.40807 0 2.03139 0 1.57399C0 1.11659 0.147981 0.73991 0.443946 0.443946C0.73991 0.147981 1.11659 0 1.57399 0C2.03139 0 2.40807 0.147981 2.70404 0.443946L9 6.73991L15.296 0.443946C15.5919 0.147981 15.9686 0 16.426 0C16.8834 0 17.2601 0.147981 17.5561 0.443946C17.852 0.73991 18 1.11659 18 1.57399C18 2.03139 17.852 2.40807 17.5561 2.70404L10.13 10.13C9.96861 10.2915 9.79372 10.4056 9.60538 10.4723C9.41704 10.5401 9.21525 10.574 9 10.574Z" fill="#FF9900"/>
</svg>
