<svg width="48" height="48" viewBox="0 0 48 48" fill="none" xmlns="http://www.w3.org/2000/svg">
<path d="M8.29432 36.5145C7.89124 36.5208 7.49095 36.4457 7.11676 36.2934C6.74256 36.1411 6.40193 35.9147 6.1147 35.6274C5.82747 35.3401 5.59938 34.9977 5.4437 34.62C5.28803 34.2423 5.20788 33.8369 5.20793 33.4275C5.20798 33.0181 5.28822 32.6127 5.44399 32.2351C5.59975 31.8574 5.82793 31.515 6.11522 31.2278C6.40252 30.9406 6.74321 30.7143 7.11744 30.5621C7.49168 30.4099 7.89198 30.3348 8.29506 30.3413C9.09285 30.354 9.85372 30.6848 10.4134 31.2624C10.9731 31.8399 11.2868 32.6179 11.2867 33.4282C11.2866 34.2386 10.9728 35.0165 10.4129 35.5939C9.85306 36.1713 9.09211 36.502 8.29432 36.5145ZM2.1742 47.709V41.661C2.1742 39.48 3.93831 37.7078 6.08789 37.7078H10.2844C12.434 37.7078 14.3539 39.48 14.3539 41.661V47.709H2.17346H2.1742ZM39.801 36.2528C40.6069 36.252 41.3795 35.9263 41.9493 35.3474C42.519 34.7685 42.8392 33.9835 42.8396 33.165C42.8485 32.754 42.7765 32.3453 42.6278 31.9629C42.4791 31.5806 42.2567 31.2322 41.9737 30.9383C41.6906 30.6444 41.3526 30.4109 40.9795 30.2515C40.6064 30.0921 40.2057 30.01 39.801 30.01C39.3962 30.01 38.9955 30.0921 38.6224 30.2515C38.2493 30.4109 37.9113 30.6444 37.6282 30.9383C37.3452 31.2322 37.1228 31.5806 36.9741 31.9629C36.8254 32.3453 36.7534 32.754 36.7623 33.165C36.7625 33.9836 37.0827 34.7686 37.6524 35.3476C38.2222 35.9266 38.995 36.2522 39.801 36.2528ZM45.9181 47.709V41.661C45.9181 39.48 44.154 37.7078 42.003 37.7078H37.8109C35.6576 37.7078 33.7407 39.48 33.7407 41.661V47.709H45.9181ZM24.0421 36.498C22.3437 36.498 20.968 35.1113 20.968 33.402C20.968 31.6928 22.3437 30.3053 24.0421 30.3053C25.739 30.3053 27.1147 31.692 27.1147 33.402C27.1147 35.112 25.7398 36.498 24.0421 36.498ZM16.6393 47.709L19.0584 41.0153C20.0273 37.596 22.8488 37.7018 22.8488 37.7018H25.2435C25.2435 37.7018 28.0636 37.5968 29.0339 41.0153L31.453 47.709H16.6393ZM24.0421 26.397V19.0733L22.8451 17.8575V25.1775H4.73656V1.89151H22.8451V13.854L24.0421 15.069V0.674255H3.54399V26.3963L24.0421 26.397Z" fill="#FF9900"/>
<path d="M13.6147 6.89624C14.0313 6.87815 14.4248 6.69735 14.7133 6.39158C15.0017 6.08582 15.1628 5.67871 15.1628 5.25524C15.1628 4.83177 15.0017 4.42467 14.7133 4.1189C14.4248 3.81314 14.0313 3.63234 13.6147 3.61424C13.1862 3.61424 12.7752 3.78713 12.4722 4.09488C12.1692 4.40263 11.999 4.82002 11.999 5.25524C11.999 5.69046 12.1692 6.10786 12.4722 6.41561C12.7752 6.72335 13.1862 6.89624 13.6147 6.89624ZM18.9499 13.716C18.9499 13.716 17.6244 9.14324 17.6222 9.13949C17.0942 7.35974 15.6158 7.41299 15.6158 7.41299H11.6165C11.6165 7.41299 10.1359 7.35974 9.60871 9.13949L8.28322 13.716C8.2558 13.8047 8.24606 13.8981 8.25457 13.9906C8.26308 14.0832 8.28967 14.1731 8.33278 14.2552C8.37589 14.3372 8.43467 14.4096 8.50567 14.4683C8.57667 14.527 8.65847 14.5708 8.7463 14.597C8.83413 14.6232 8.92622 14.6314 9.0172 14.621C9.10817 14.6107 9.1962 14.582 9.27615 14.5367C9.3561 14.4914 9.42636 14.4304 9.48282 14.3572C9.53929 14.284 9.58083 14.2002 9.60501 14.1105L10.8707 9.73424L10.8736 9.73574L11.4378 9.73424V14.7142L9.20995 22.4797C9.16866 22.6228 9.16076 22.7737 9.18687 22.9205C9.21299 23.0672 9.2724 23.2058 9.3604 23.3251C9.4484 23.4445 9.56257 23.5414 9.69385 23.6082C9.82514 23.6749 9.96993 23.7097 10.1167 23.7097C10.5266 23.7097 10.9047 23.4375 11.0258 23.019L13.2263 15.351H14.0053L16.2059 23.019C16.2405 23.1401 16.2984 23.2531 16.3762 23.3514C16.4539 23.4497 16.55 23.5315 16.659 23.5921C16.7679 23.6526 16.8875 23.6907 17.011 23.7042C17.1345 23.7177 17.2594 23.7064 17.3785 23.6707C17.4977 23.6354 17.6089 23.5766 17.7057 23.4976C17.8025 23.4186 17.883 23.321 17.9427 23.2104C18.0023 23.0998 18.0399 22.9784 18.0534 22.853C18.0668 22.7276 18.0558 22.6008 18.0209 22.4797L15.7931 14.718V9.73499L16.3572 9.73649L16.3602 9.73499L17.6273 14.1112C17.6788 14.2893 17.7979 14.4392 17.9582 14.5281C18.0376 14.5721 18.1248 14.5998 18.2147 14.6096C18.3047 14.6194 18.3956 14.6111 18.4824 14.5852C18.5692 14.5593 18.6501 14.5163 18.7206 14.4587C18.791 14.401 18.8495 14.3298 18.8929 14.2492C18.9362 14.1685 18.9635 14.08 18.9731 13.9886C18.9828 13.8973 18.9746 13.8049 18.9491 13.7167L18.9499 13.716ZM39.7869 13.0267C38.9938 13.009 38.239 12.6765 37.6843 12.1005C37.1295 11.5245 36.8189 10.7507 36.8189 9.94499C36.8189 9.13924 37.1295 8.36551 37.6843 7.78951C38.239 7.21351 38.9938 6.88102 39.7869 6.86324C40.1855 6.86295 40.5802 6.94252 40.9484 7.09741C41.3166 7.2523 41.6512 7.47946 41.9328 7.76587C42.2145 8.05229 42.4377 8.39233 42.5898 8.76652C42.7418 9.14071 42.8197 9.54169 42.8189 9.94649C42.8195 10.3511 42.7415 10.7518 42.5893 11.1258C42.4372 11.4997 42.2139 11.8395 41.9322 12.1256C41.6506 12.4117 41.3161 12.6386 40.948 12.7933C40.5798 12.9479 40.1853 13.0272 39.7869 13.0267ZM39.7869 17.61C39.7869 17.61 40.5231 17.7067 40.9736 17.073C41.3812 16.494 41.4115 14.5755 41.4144 14.2282H38.1565C38.1454 15.609 38.3034 16.6155 38.6283 17.1225C38.9562 17.64 39.7869 17.6107 39.7869 17.6107V17.61Z" fill="#FF9900"/>
<path d="M26.566 20.3272C26.4545 20.5132 26.281 20.8912 26.281 21.1297C26.281 21.8497 26.8533 22.428 27.5599 22.428H31.7668C32.2446 22.428 32.8722 22.2322 33.1403 21.8242C34.0449 20.46 35.0011 19.0222 35.2832 18.5925V26.6715H45.8782V18.3862C45.8782 16.2195 44.2116 14.2687 42.24 14.2687C42.2451 15.2857 42.1107 16.9747 41.5244 17.7142C40.9123 18.4695 40.1916 18.4035 40.1916 18.4035V21.5557C40.4186 21.6499 40.6064 21.8213 40.7226 22.0407C40.8388 22.2601 40.8761 22.5137 40.8283 22.7581C40.7804 23.0024 40.6503 23.2222 40.4603 23.3797C40.2702 23.5372 40.0322 23.6226 39.7869 23.6212C39.648 23.6213 39.5104 23.5936 39.3821 23.5396C39.2537 23.4856 39.1371 23.4064 39.039 23.3066C38.9408 23.2067 38.863 23.0882 38.81 22.9578C38.757 22.8274 38.7299 22.6876 38.7302 22.5465C38.7302 22.1002 38.9975 21.7177 39.38 21.5557V18.3892C39.38 18.3892 38.7509 18.4417 38.1564 17.8365C37.3626 16.9965 37.3331 14.616 37.3346 14.2267H37.1418C36.5011 14.2263 35.8703 14.3867 35.3053 14.6936C34.7404 15.0006 34.259 15.4446 33.9038 15.9862L31.385 19.8465L27.5636 19.845L22.1672 14.3632C22.1191 14.314 22.0618 14.2749 21.9988 14.2483C21.9357 14.2216 21.8681 14.2079 21.7998 14.2079C21.7315 14.2079 21.6639 14.2216 21.6008 14.2483C21.5378 14.2749 21.4806 14.314 21.4324 14.3632C21.3839 14.4122 21.3454 14.4704 21.319 14.5345C21.2927 14.5986 21.2791 14.6673 21.2789 14.7368C21.2788 14.8063 21.2922 14.8751 21.3182 14.9393C21.3443 15.0035 21.3826 15.0618 21.431 15.111L26.5668 20.328L26.566 20.3272Z" fill="#FF9900"/>
</svg>
