<svg width="48" height="48" viewBox="0 0 48 48" fill="none" xmlns="http://www.w3.org/2000/svg">
<path d="M42 24.44C42 13.46 33.48 6 24 6C14.62 6 6 13.3 6 24.56C4.8 25.24 4 26.52 4 28V32C4 34.2 5.8 36 8 36C9.1 36 10 35.1 10 34V24.38C10 16.72 15.9 10.02 23.56 9.8C25.4347 9.74299 27.3018 10.0629 29.0506 10.7407C30.7994 11.4185 32.3943 12.4405 33.7409 13.746C35.0875 15.0516 36.1583 16.6141 36.8899 18.3411C37.6215 20.0681 37.999 21.9244 38 23.8V38H24C22.9 38 22 38.9 22 40C22 41.1 22.9 42 24 42H38C40.2 42 42 40.2 42 38V35.56C43.18 34.94 44 33.72 44 32.28V27.68C44 26.28 43.18 25.06 42 24.44Z" fill="#FF9900"/>
<path d="M18 28C19.1046 28 20 27.1046 20 26C20 24.8954 19.1046 24 18 24C16.8954 24 16 24.8954 16 26C16 27.1046 16.8954 28 18 28Z" fill="#FF9900"/>
<path d="M30 28C31.1046 28 32 27.1046 32 26C32 24.8954 31.1046 24 30 24C28.8954 24 28 24.8954 28 26C28 27.1046 28.8954 28 30 28Z" fill="#FF9900"/>
<path d="M36.0001 22.06C35.5232 19.2483 34.0669 16.6959 31.889 14.8548C29.711 13.0136 26.9519 12.0023 24.1001 12C18.0401 12 11.5201 17.02 12.0401 24.9C14.5063 23.8908 16.6845 22.287 18.3805 20.2316C20.0765 18.1762 21.2375 15.733 21.7601 13.12C24.3801 18.38 29.7601 22 36.0001 22.06Z" fill="#FF9900"/>
</svg>
