<svg width="48" height="48" viewBox="0 0 48 48" fill="none" xmlns="http://www.w3.org/2000/svg">
<path d="M8.00001 22C7.43334 22 6.95801 21.808 6.57401 21.424C6.19001 21.04 5.99867 20.5653 6.00001 20V8.00001C6.00001 7.43334 6.19201 6.95801 6.57601 6.57401C6.96001 6.19001 7.43467 5.99867 8.00001 6.00001H20C20.5667 6.00001 21.042 6.19201 21.426 6.57601C21.81 6.96001 22.0013 7.43467 22 8.00001V20C22 20.5667 21.808 21.042 21.424 21.426C21.04 21.81 20.5653 22.0013 20 22H8.00001ZM28 22C27.4333 22 26.958 21.808 26.574 21.424C26.19 21.04 25.9987 20.5653 26 20V8.00001C26 7.43334 26.192 6.95801 26.576 6.57401C26.96 6.19001 27.4347 5.99867 28 6.00001H40C40.5667 6.00001 41.042 6.19201 41.426 6.57601C41.81 6.96001 42.0013 7.43467 42 8.00001V20C42 20.5667 41.808 21.042 41.424 21.426C41.04 21.81 40.5653 22.0013 40 22H28ZM8.00001 42C7.43334 42 6.95801 41.808 6.57401 41.424C6.19001 41.04 5.99867 40.5653 6.00001 40V28C6.00001 27.4333 6.19201 26.958 6.57601 26.574C6.96001 26.19 7.43467 25.9987 8.00001 26H20C20.5667 26 21.042 26.192 21.426 26.576C21.81 26.96 22.0013 27.4347 22 28V40C22 40.5667 21.808 41.042 21.424 41.426C21.04 41.81 20.5653 42.0013 20 42H8.00001ZM34 42C33.4333 42 32.958 41.808 32.574 41.424C32.19 41.04 31.9987 40.5653 32 40V36H27.95C27.3833 36 26.9167 35.808 26.55 35.424C26.1833 35.04 26 34.5653 26 34C26 33.4333 26.192 32.958 26.576 32.574C26.96 32.19 27.4347 31.9987 28 32H32V27.95C32 27.3833 32.192 26.9167 32.576 26.55C32.96 26.1833 33.4347 26 34 26C34.5667 26 35.042 26.192 35.426 26.576C35.81 26.96 36.0013 27.4347 36 28V32H40.05C40.6167 32 41.0833 32.192 41.45 32.576C41.8167 32.96 42 33.4347 42 34C42 34.5667 41.808 35.042 41.424 35.426C41.04 35.81 40.5653 36.0013 40 36H36V40.05C36 40.6167 35.808 41.0833 35.424 41.45C35.04 41.8167 34.5653 42 34 42Z" fill="#FF9900"/>
</svg>
