<svg width="48" height="48" viewBox="0 0 48 48" fill="none" xmlns="http://www.w3.org/2000/svg">
<g clip-path="url(#clip0_46_73)">
<path d="M24 29.3333C27.1149 29.3333 29.64 26.8082 29.64 23.6933C29.64 20.5784 27.1149 18.0533 24 18.0533C20.8851 18.0533 18.36 20.5784 18.36 23.6933C18.36 26.8082 20.8851 29.3333 24 29.3333Z" fill="#FF9900"/>
<path d="M28 5.33333C28 4.62609 27.719 3.94781 27.219 3.44771C26.7189 2.94762 26.0406 2.66666 25.3333 2.66666H22.6667C21.9594 2.66666 21.2811 2.94762 20.781 3.44771C20.281 3.94781 20 4.62609 20 5.33333V13.3333H28V5.33333Z" fill="#FF9900"/>
<path d="M13.68 36C13.4533 36.2734 13.3305 36.6182 13.3333 36.9733V40H34.6666V36.9333C34.6706 36.578 34.5477 36.2329 34.32 35.96C33.026 34.5185 31.4307 33.3794 29.6472 32.6236C27.8637 31.8678 25.9357 31.5138 24 31.5867C22.0612 31.5187 20.1312 31.879 18.3475 32.6418C16.5638 33.4046 14.9701 34.5512 13.68 36Z" fill="#FF9900"/>
<path d="M37.3333 17.6267V42.6667H10.6667V10.6667H17.3333V8H10.6667C9.95942 8 9.28115 8.28095 8.78105 8.78105C8.28095 9.28115 8 9.95942 8 10.6667V42.6667C8 43.3739 8.28095 44.0522 8.78105 44.5523C9.28115 45.0524 9.95942 45.3333 10.6667 45.3333H37.3333C38.0406 45.3333 38.7189 45.0524 39.219 44.5523C39.719 44.0522 40 43.3739 40 42.6667V18C39.0983 17.9965 38.2013 17.8709 37.3333 17.6267Z" fill="#FF9900"/>
<path d="M40 14.6667C43.6819 14.6667 46.6667 11.6819 46.6667 8C46.6667 4.3181 43.6819 1.33334 40 1.33334C36.3181 1.33334 33.3334 4.3181 33.3334 8C33.3334 11.6819 36.3181 14.6667 40 14.6667Z" fill="#FF9900"/>
</g>
<defs>
<clipPath id="clip0_46_73">
<rect width="48" height="48" fill="white"/>
</clipPath>
</defs>
</svg>
