<svg width="48" height="48" viewBox="0 0 48 48" fill="none" xmlns="http://www.w3.org/2000/svg">
<g clip-path="url(#clip0_56_66)">
<path d="M6 42H48V48H0V0H6V42ZM13.5 39C12.8917 39.0012 12.2895 38.8791 11.7298 38.641C11.17 38.403 10.6644 38.0539 10.2433 37.6149C9.8223 37.1759 9.49462 36.6561 9.28012 36.0869C9.06561 35.5178 8.96872 34.911 8.99531 34.3033C9.0219 33.6956 9.17141 33.0996 9.43481 32.5514C9.69821 32.0031 10.07 31.5139 10.5278 31.1134C10.9856 30.7128 11.5198 30.4092 12.0982 30.221C12.6766 30.0327 13.2872 29.9637 13.893 30.018L18.729 21.957C18.2868 21.2779 18.0362 20.492 18.0036 19.6823C17.9711 18.8726 18.1578 18.0691 18.544 17.3567C18.9302 16.6443 19.5017 16.0494 20.198 15.6349C20.8943 15.2203 21.6896 15.0015 22.5 15.0015C23.3104 15.0015 24.1057 15.2203 24.802 15.6349C25.4983 16.0494 26.0698 16.6443 26.456 17.3567C26.8422 18.0691 27.0289 18.8726 26.9964 19.6823C26.9638 20.492 26.7132 21.2779 26.271 21.957L31.107 30.018C31.3365 29.9973 31.5672 29.9953 31.797 30.012L39.783 16.038C39.2091 15.1974 38.9372 14.187 39.0116 13.1719C39.086 12.1567 39.5023 11.1968 40.1926 10.4488C40.8829 9.70085 41.8064 9.20899 42.8123 9.05356C43.8183 8.89813 44.8472 9.08831 45.731 9.59305C46.6149 10.0978 47.3016 10.8873 47.6789 11.8326C48.0562 12.7779 48.1019 13.8233 47.8085 14.7979C47.5151 15.7726 46.9 16.619 46.0635 17.1989C45.227 17.7788 44.2186 18.0581 43.203 17.991L35.217 31.965C35.6758 32.638 35.9434 33.4228 35.9912 34.2359C36.039 35.049 35.8653 35.8599 35.4884 36.582C35.1116 37.304 34.5459 37.9103 33.8515 38.3361C33.1572 38.7619 32.3603 38.9913 31.5459 38.9998C30.7314 39.0083 29.9299 38.7956 29.2269 38.3843C28.5238 37.973 27.9456 37.3787 27.5538 36.6646C27.162 35.9505 26.9714 35.1435 27.0022 34.3296C27.0331 33.5157 27.2843 32.7254 27.729 32.043L22.893 23.982C22.6316 24.0062 22.3684 24.0062 22.107 23.982L17.271 32.043C17.7136 32.7221 17.9645 33.5082 17.9973 34.3181C18.0301 35.128 17.8434 35.9318 17.4572 36.6444C17.0709 37.3571 16.4993 37.9521 15.8027 38.3668C15.1062 38.7814 14.3106 39.0002 13.5 39Z" fill="#FF9900"/>
</g>
<defs>
<clipPath id="clip0_56_66">
<rect width="48" height="48" fill="white"/>
</clipPath>
</defs>
</svg>
