<svg width="48" height="48" viewBox="0 0 48 48" fill="none" xmlns="http://www.w3.org/2000/svg">
<g clip-path="url(#clip0_45_68)">
<path d="M24 10.5C22.9617 10.5 21.9466 10.1921 21.0833 9.61522C20.2199 9.03834 19.547 8.2184 19.1496 7.25909C18.7523 6.29978 18.6483 5.24418 18.8509 4.22578C19.0535 3.20738 19.5535 2.27192 20.2877 1.53769C21.0219 0.803466 21.9574 0.303452 22.9758 0.10088C23.9942 -0.101693 25.0498 0.00227478 26.0091 0.399635C26.9684 0.796995 27.7883 1.4699 28.3652 2.33326C28.9421 3.19662 29.25 4.21165 29.25 5.25C29.2485 6.64193 28.6949 7.97642 27.7107 8.96067C26.7264 9.94491 25.3919 10.4985 24 10.5Z" fill="#FF9900"/>
<path d="M40.5 10.575L40.4578 10.5863L40.4185 10.5984C40.3247 10.6247 40.231 10.6528 40.1372 10.6819C38.3925 11.1938 29.925 13.5806 23.9597 13.5806C18.4163 13.5806 10.7147 11.5181 8.25098 10.8178C8.00578 10.723 7.75537 10.6423 7.50098 10.5759C5.71973 10.1072 4.50098 11.9166 4.50098 13.5703C4.50098 15.2081 5.97285 15.9881 7.45879 16.5478V16.5741L16.3857 19.3622C17.2979 19.7119 17.5416 20.0691 17.6607 20.3784C18.0479 21.3713 17.7385 23.3372 17.6288 24.0234L17.085 28.2422L14.0672 44.76C14.0579 44.805 14.0494 44.8509 14.0419 44.8978L14.0204 45.0169C13.8029 46.5309 14.9147 48 17.0204 48C18.8579 48 19.6688 46.7316 20.0204 45.0056C20.3719 43.2797 22.6454 30.2334 23.9579 30.2334C25.2704 30.2334 27.9741 45.0056 27.9741 45.0056C28.3257 46.7316 29.1366 48 30.9741 48C33.0854 48 34.1972 46.5244 33.9741 45.0056C33.9549 44.8779 33.9312 44.751 33.9029 44.625L30.8438 28.2441L30.301 24.0253C29.9082 21.5681 30.2241 20.7563 30.331 20.5659C30.3338 20.5615 30.3363 20.5568 30.3385 20.5519C30.4397 20.3644 30.901 19.9444 31.9772 19.5403L40.3472 16.6144C40.3986 16.6007 40.4493 16.5844 40.4991 16.5656C41.9991 16.0031 43.4991 15.225 43.4991 13.5722C43.4991 11.9194 42.2813 10.1072 40.5 10.575Z" fill="#FF9900"/>
</g>
<defs>
<clipPath id="clip0_45_68">
<rect width="48" height="48" fill="white"/>
</clipPath>
</defs>
</svg>
