<svg width="48" height="48" viewBox="0 0 48 48" fill="none" xmlns="http://www.w3.org/2000/svg">
<path d="M25.67 6.324C25.7813 6.23951 25.8803 6.13988 25.964 6.028H31.088C31.4744 6.00711 31.8616 6.00711 32.248 6.028H32.324C33.4625 6.02478 34.5873 6.27626 35.616 6.764C37.4952 7.50115 39.1207 8.76681 40.296 10.408C41.1856 11.6507 41.7908 13.074 42.0687 14.5769C42.3466 16.0797 42.2904 17.6253 41.904 19.104L35.342 12.63C35.0611 12.353 34.6825 12.1978 34.288 12.198H24.738C24.4315 12.2105 24.1363 12.3166 23.892 12.502L20.124 15.358C19.9215 15.5122 19.6906 15.625 19.4445 15.6899C19.1984 15.7549 18.942 15.7707 18.6898 15.7365C18.4376 15.7023 18.1946 15.6188 17.9746 15.4907C17.7547 15.3627 17.5622 15.1925 17.408 14.99C17.2547 14.7907 17.1425 14.563 17.0777 14.32C17.0129 14.0771 16.9969 13.8237 17.0305 13.5746C17.0642 13.3254 17.1469 13.0854 17.2738 12.8683C17.4007 12.6513 17.5693 12.4615 17.77 12.31L25.67 6.324ZM15.798 28.472L15.77 28.498L13.822 30.434L13.796 30.458C13.4548 30.7824 13.0009 30.9613 12.5301 30.9568C12.0594 30.9523 11.6089 30.7648 11.274 30.434C11.1067 30.2681 10.9739 30.0708 10.8832 29.8533C10.7926 29.6359 10.7459 29.4026 10.7459 29.167C10.7459 28.9314 10.7926 28.6981 10.8832 28.4807C10.9739 28.2632 11.1067 28.0659 11.274 27.9L13.222 25.964C13.5613 25.628 14.0195 25.4395 14.497 25.4395C14.9745 25.4395 15.4327 25.628 15.772 25.964C16.1055 26.2945 16.2952 26.7432 16.3001 27.2127C16.305 27.6822 16.1246 28.1346 15.798 28.472ZM15.216 31.868C14.8894 32.2053 14.709 32.6578 14.7139 33.1273C14.7187 33.5968 14.9085 34.0455 15.242 34.376C15.946 35.076 17.088 35.076 17.792 34.376L19.74 32.442C19.9292 32.2547 20.0741 32.0275 20.1641 31.777C20.254 31.5264 20.2868 31.2589 20.2599 30.9941C20.2331 30.7292 20.1473 30.4738 20.0089 30.2464C19.8705 30.019 19.6829 29.8255 19.46 29.68C19.1183 29.4552 18.7106 29.3526 18.3031 29.3889C17.8957 29.4252 17.5125 29.5983 17.216 29.88L17.19 29.908L15.242 31.842L15.216 31.868ZM11 22.816C11.1673 22.9819 11.3001 23.1792 11.3908 23.3967C11.4814 23.6141 11.5281 23.8474 11.5281 24.083C11.5281 24.3186 11.4814 24.5519 11.3908 24.7693C11.3001 24.9868 11.1673 25.1841 11 25.35L9.05199 27.286C8.71261 27.6226 8.25398 27.8115 7.77599 27.8115C7.298 27.8115 6.83937 27.6226 6.49999 27.286C6.33267 27.1201 6.19986 26.9228 6.10922 26.7053C6.01859 26.4879 5.97192 26.2546 5.97192 26.019C5.97192 25.7834 6.01859 25.5501 6.10922 25.3327C6.19986 25.1152 6.33267 24.9179 6.49999 24.752L8.44999 22.816C8.78928 22.48 9.24749 22.2915 9.72499 22.2915C10.2025 22.2915 10.6607 22.48 11 22.816ZM23.706 33.85C23.8733 34.0159 24.0061 34.2132 24.0968 34.4307C24.1874 34.6481 24.2341 34.8814 24.2341 35.117C24.2341 35.3526 24.1874 35.5859 24.0968 35.8033C24.0061 36.0208 23.8733 36.2181 23.706 36.384L21.758 38.32C21.4187 38.656 20.9605 38.8445 20.483 38.8445C20.0055 38.8445 19.5473 38.656 19.208 38.32C18.9423 38.0566 18.7662 37.7164 18.7045 37.3475C18.6427 36.9785 18.6985 36.5995 18.864 36.264L18.866 36.26C18.9532 36.0843 19.0688 35.9242 19.208 35.786L21.156 33.85C21.4953 33.514 21.9535 33.3255 22.431 33.3255C22.9085 33.3255 23.3667 33.514 23.706 33.85ZM10.688 9.662C12.016 8.34267 13.6263 7.34227 15.3974 6.7363C17.1685 6.13034 19.0542 5.93464 20.912 6.164L15.96 9.92C15.4442 10.3102 15.0107 10.7986 14.6844 11.3571C14.3581 11.9156 14.1456 12.5331 14.059 13.174C13.9723 13.815 14.0133 14.4668 14.1797 15.0918C14.346 15.7169 14.6343 16.3028 15.028 16.816C15.8229 17.8521 16.9953 18.5318 18.2895 18.7068C19.5836 18.8818 20.8945 18.5378 21.936 17.75L25.302 15.2H33.672L40.686 22.12C40.7085 22.1479 40.7326 22.1746 40.758 22.2L43.058 24.5C43.5754 25.0246 43.8719 25.7276 43.8864 26.4643C43.9008 27.201 43.6323 27.9151 43.1359 28.4597C42.6396 29.0042 41.9533 29.3376 41.2184 29.3913C40.4836 29.4449 39.7562 29.2147 39.186 28.748L38.994 28.556C38.9569 28.5182 38.9167 28.4834 38.874 28.452L36.688 26.268C36.5957 26.1725 36.4854 26.0963 36.3634 26.0439C36.2414 25.9915 36.1102 25.9639 35.9774 25.9627C35.8446 25.9616 35.7129 25.9869 35.59 26.0372C35.4671 26.0875 35.3555 26.1617 35.2616 26.2556C35.1677 26.3495 35.0935 26.4611 35.0432 26.584C34.9929 26.7069 34.9676 26.8386 34.9687 26.9714C34.9699 27.1042 34.9975 27.2354 35.0499 27.3574C35.1023 27.4794 35.1785 27.5897 35.274 27.682L37.574 29.982C37.658 30.064 37.742 30.144 37.83 30.22L37.918 30.308C38.1106 30.4965 38.2639 30.7213 38.369 30.9694C38.4742 31.2176 38.529 31.4841 38.5305 31.7535C38.5319 32.023 38.4799 32.2901 38.3775 32.5394C38.275 32.7886 38.1242 33.0151 37.9336 33.2056C37.743 33.3962 37.5166 33.547 37.2674 33.6495C37.0181 33.7519 36.751 33.8039 36.4815 33.8025C36.2121 33.801 35.9455 33.7462 35.6974 33.641C35.4493 33.5359 35.2245 33.3826 35.036 33.19L34.696 32.852C34.5549 32.7113 34.3751 32.616 34.1795 32.5782C33.984 32.5404 33.7815 32.5619 33.5983 32.6399C33.415 32.7179 33.2591 32.8489 33.1508 33.016C33.0424 33.1831 32.9864 33.3788 32.99 33.578C32.9868 33.7133 33.0113 33.8478 33.0618 33.9733C33.1124 34.0988 33.188 34.2127 33.284 34.308L33.73 34.754C33.9138 34.9271 34.061 35.1352 34.1628 35.3662C34.2647 35.5972 34.3191 35.8463 34.3229 36.0987C34.3267 36.3512 34.2798 36.6018 34.1849 36.8357C34.0901 37.0697 33.9492 37.2822 33.7707 37.4607C33.5922 37.6392 33.3797 37.7801 33.1457 37.8749C32.9118 37.9698 32.6612 38.0167 32.4087 38.0129C32.1563 38.0091 31.9072 37.9547 31.6762 37.8528C31.4452 37.751 31.237 37.6038 31.064 37.42L31.038 37.394L30.618 36.974C30.5255 36.8804 30.4154 36.8062 30.2941 36.7555C30.1727 36.7048 30.0425 36.6787 29.911 36.6787C29.7795 36.6787 29.6493 36.7048 29.5279 36.7555C29.4065 36.8062 29.2964 36.8804 29.204 36.974C29.0165 37.1615 28.9112 37.4158 28.9112 37.681C28.9112 37.9462 29.0165 38.2005 29.204 38.388L29.64 38.826C29.8195 39.0033 29.9623 39.2142 30.0604 39.4467C30.1584 39.6792 30.2096 39.9287 30.2112 40.181C30.2128 40.4333 30.1646 40.6834 30.0696 40.9171C29.9745 41.1508 29.8343 41.3635 29.657 41.543C29.4797 41.7225 29.2688 41.8654 29.0363 41.9634C28.8038 42.0614 28.5543 42.1126 28.302 42.1142C28.0497 42.1158 27.7996 42.0677 27.5659 41.9726C27.3322 41.8775 27.1195 41.7373 26.94 41.56L24.078 38.84L25.128 37.796C25.4814 37.4457 25.7619 37.0289 25.9533 36.5696C26.1447 36.1103 26.2433 35.6176 26.2433 35.12C26.2433 34.6224 26.1447 34.1297 25.9533 33.6704C25.7619 33.2111 25.4814 32.7943 25.128 32.444C24.7541 32.0719 24.307 31.7815 23.815 31.5912C23.3231 31.4008 22.797 31.3146 22.27 31.338C22.2931 30.8132 22.206 30.2894 22.0145 29.8003C21.823 29.3112 21.5312 28.8676 21.158 28.498C20.7841 28.1265 20.3373 27.8367 19.8457 27.6466C19.3541 27.4566 18.8285 27.3706 18.302 27.394C18.325 26.8695 18.238 26.3461 18.0465 25.8573C17.8549 25.3685 17.5632 24.9252 17.19 24.556C16.7149 24.084 16.1242 23.7451 15.477 23.5731C14.8297 23.4011 14.1487 23.4021 13.502 23.576C13.3904 22.7537 13.01 21.9915 12.42 21.408C11.762 20.7558 10.8899 20.3644 9.9653 20.3063C9.04072 20.2482 8.12643 20.5273 7.39199 21.092C6.91989 19.0642 6.97495 16.9493 7.55191 14.9488C8.12888 12.9483 9.20854 11.1269 10.688 9.662Z" fill="#FF9900"/>
</svg>
