<svg width="48" height="48" viewBox="0 0 48 48" fill="none" xmlns="http://www.w3.org/2000/svg">
<path d="M44 7.33333V13.1667C44 13.6087 43.8244 14.0326 43.5118 14.3452C43.1993 14.6577 42.7754 14.8333 42.3333 14.8333C41.8913 14.8333 41.4674 14.6577 41.1548 14.3452C40.8423 14.0326 40.6667 13.6087 40.6667 13.1667V7.33333H34.8333C34.3913 7.33333 33.9674 7.15774 33.6548 6.84518C33.3423 6.53262 33.1667 6.10869 33.1667 5.66667C33.1667 5.22464 33.3423 4.80072 33.6548 4.48816C33.9674 4.1756 34.3913 4 34.8333 4H40.6667C41.5507 4 42.3986 4.35119 43.0237 4.97631C43.6488 5.60143 44 6.44928 44 7.33333ZM42.3333 33.1667C41.8913 33.1667 41.4674 33.3423 41.1548 33.6548C40.8423 33.9674 40.6667 34.3913 40.6667 34.8333V40.6667H34.8333C34.3913 40.6667 33.9674 40.8423 33.6548 41.1548C33.3423 41.4674 33.1667 41.8913 33.1667 42.3333C33.1667 42.7754 33.3423 43.1993 33.6548 43.5118C33.9674 43.8244 34.3913 44 34.8333 44H40.6667C41.5507 44 42.3986 43.6488 43.0237 43.0237C43.6488 42.3986 44 41.5507 44 40.6667V34.8333C44 34.3913 43.8244 33.9674 43.5118 33.6548C43.1993 33.3423 42.7754 33.1667 42.3333 33.1667ZM13.1667 40.6667H7.33333V34.8333C7.33333 34.3913 7.15774 33.9674 6.84518 33.6548C6.53262 33.3423 6.10869 33.1667 5.66667 33.1667C5.22464 33.1667 4.80072 33.3423 4.48816 33.6548C4.1756 33.9674 4 34.3913 4 34.8333V40.6667C4 41.5507 4.35119 42.3986 4.97631 43.0237C5.60143 43.6488 6.44928 44 7.33333 44H13.1667C13.6087 44 14.0326 43.8244 14.3452 43.5118C14.6577 43.1993 14.8333 42.7754 14.8333 42.3333C14.8333 41.8913 14.6577 41.4674 14.3452 41.1548C14.0326 40.8423 13.6087 40.6667 13.1667 40.6667ZM5.66667 14.8333C6.10869 14.8333 6.53262 14.6577 6.84518 14.3452C7.15774 14.0326 7.33333 13.6087 7.33333 13.1667V7.33333H13.1667C13.6087 7.33333 14.0326 7.15774 14.3452 6.84518C14.6577 6.53262 14.8333 6.10869 14.8333 5.66667C14.8333 5.22464 14.6577 4.80072 14.3452 4.48816C14.0326 4.1756 13.6087 4 13.1667 4H7.33333C6.44928 4 5.60143 4.35119 4.97631 4.97631C4.35119 5.60143 4 6.44928 4 7.33333V13.1667C4 13.6087 4.1756 14.0326 4.48816 14.3452C4.80072 14.6577 5.22464 14.8333 5.66667 14.8333ZM18.375 26.8146C16.111 27.7968 14.1432 29.3538 12.6667 31.3312C12.4804 31.5789 12.3668 31.8735 12.3386 32.1821C12.3105 32.4907 12.369 32.801 12.5075 33.0782C12.646 33.3554 12.859 33.5885 13.1227 33.7514C13.3863 33.9142 13.6901 34.0003 14 34H34C34.3099 34.0003 34.6137 33.9142 34.8773 33.7514C35.141 33.5885 35.354 33.3554 35.4925 33.0782C35.631 32.801 35.6895 32.4907 35.6614 32.1821C35.6332 31.8735 35.5196 31.5789 35.3333 31.3312C33.8568 29.3538 31.889 27.7968 29.625 26.8146C30.866 25.6815 31.7355 24.1998 32.1193 22.5637C32.5031 20.9277 32.3834 19.2139 31.7757 17.6471C31.1681 16.0804 30.101 14.734 28.7144 13.7845C27.3279 12.8351 25.6867 12.3271 24.0062 12.3271C22.3258 12.3271 20.6846 12.8351 19.2981 13.7845C17.9115 14.734 16.8444 16.0804 16.2368 17.6471C15.6291 19.2139 15.5094 20.9277 15.8932 22.5637C16.277 24.1998 17.1465 25.6815 18.3875 26.8146H18.375Z" fill="#FF9900"/>
</svg>
