<svg width="48" height="48" viewBox="0 0 48 48" fill="none" xmlns="http://www.w3.org/2000/svg">
<g clip-path="url(#clip0_65_99)">
<path d="M4.56803 44.316C4.57003 46.216 5.92603 47.82 7.80803 47.9C10.428 48.01 13.054 47.944 15.678 47.944C17.586 47.944 19.25 46.214 19.198 44.036C19.14 41.594 19.234 39.146 19.256 36.702L19.346 26.726C19.352 26.116 19.438 26.002 20.016 25.846C21.3278 25.4788 22.7087 25.4328 24.042 25.712C26.502 26.236 28.3 28.132 28.564 30.632C28.696 31.872 28.704 33.13 28.72 34.38C28.77 37.66 28.796 40.94 28.828 44.222C28.848 46.396 30.42 47.976 32.594 47.986C34.936 47.998 37.278 48.002 39.62 48C41.832 47.996 43.41 46.444 43.416 44.234C43.43 37.492 43.43 30.75 43.436 24.008C43.436 23.904 43.436 23.798 43.426 23.696C43.366 22.986 43.088 22.38 42.46 22.02C42.0269 21.7605 41.5588 21.5645 41.07 21.438C39.1796 20.9817 37.2184 20.8981 35.296 21.192C33.81 21.418 32.344 21.778 30.87 22.076C28.93 22.468 26.978 22.636 25.002 22.432C22.466 22.174 20.262 21.1 18.198 19.672C17.2204 18.9886 16.224 18.3323 15.21 17.704C13.97 16.944 12.582 16.694 11.15 16.616C9.61003 16.53 8.07803 16.49 6.56403 16.838C5.38403 17.11 4.76603 17.796 4.63203 18.992C4.60408 19.2437 4.59006 19.4967 4.59003 19.75M19.264 7.38198C19.2681 6.41677 19.082 5.4602 18.7164 4.5669C18.3508 3.6736 17.8128 2.86106 17.1332 2.17567C16.4535 1.49028 15.6456 0.945463 14.7554 0.57233C13.8652 0.199196 12.9102 0.00505188 11.945 0.000980907C10.9798 -0.00309007 10.0232 0.182992 9.12994 0.548603C8.23664 0.914214 7.4241 1.45219 6.73871 2.13183C6.05332 2.81146 5.50851 3.61943 5.13537 4.50962C4.76224 5.3998 4.5681 6.35477 4.56403 7.31998C4.55607 9.26932 5.32281 11.142 6.69558 12.526C8.06834 13.91 9.93468 14.692 11.884 14.7C13.8334 14.7079 15.706 13.9412 17.09 12.5684C18.4741 11.1957 19.2561 9.33132 19.264 7.38198ZM35.934 3.76198C33.9871 3.75294 32.1162 4.51714 30.7325 5.88668C29.3487 7.25622 28.5651 9.11908 28.554 11.066C28.5474 12.0343 28.7324 12.9943 29.0983 13.8908C29.4641 14.7874 30.0037 15.6027 30.6859 16.2899C31.3681 16.9771 32.1794 17.5226 33.0732 17.8951C33.9671 18.2675 34.9257 18.4595 35.894 18.46C37.8412 18.4611 39.7093 17.6901 41.0889 16.3161C42.4686 14.9421 43.2471 13.0771 43.254 11.13C43.2583 9.18269 42.49 7.3132 41.1178 5.93157C39.7455 4.54994 37.8813 3.76898 35.934 3.75998V3.76198Z" fill="#FF9900"/>
</g>
<defs>
<clipPath id="clip0_65_99">
<rect width="48" height="48" fill="white"/>
</clipPath>
</defs>
</svg>
