<svg width="40" height="40" viewBox="0 0 40 40" fill="none" xmlns="http://www.w3.org/2000/svg">
<path fill-rule="evenodd" clip-rule="evenodd" d="M5 17.0833C5 10.41 10.41 5 17.0833 5H22.9167C29.59 5 35 10.41 35 17.0833C35 23.7567 29.59 29.1667 22.9167 29.1667H22.3333V35C22.3333 35 5 32.0833 5 17.0833ZM23.0758 10.4017C23.9342 10.9717 24.5817 11.8958 24.5817 13.135C24.5817 14.45 24.0508 15.4167 23.1917 16.0083C22.8525 16.238 22.4781 16.4108 22.0833 16.52V17.7967C22.0833 17.9608 22.051 18.1234 21.9882 18.275C21.9254 18.4267 21.8333 18.5645 21.7172 18.6805C21.6011 18.7966 21.4633 18.8887 21.3117 18.9515C21.16 19.0143 20.9975 19.0467 20.8333 19.0467C20.6692 19.0467 20.5066 19.0143 20.355 18.9515C20.2033 18.8887 20.0655 18.7966 19.9495 18.6805C19.8334 18.5645 19.7413 18.4267 19.6785 18.275C19.6157 18.1234 19.5833 17.9608 19.5833 17.7967V15.4658C19.5833 15.1487 19.7037 14.8434 19.9204 14.6117C20.137 14.3801 20.4336 14.2395 20.75 14.2183C21.2117 14.1875 21.5617 14.0958 21.7733 13.95C21.8588 13.8934 21.9278 13.8152 21.9733 13.7233C22.0233 13.6233 22.0817 13.445 22.0817 13.1342C22.0817 12.8733 21.9792 12.6742 21.6917 12.4825C21.365 12.2658 20.84 12.1058 20.2092 12.0858C19.5858 12.0658 18.98 12.1875 18.5342 12.4033C18.0875 12.62 17.9242 12.8633 17.8775 13.0425C17.8397 13.2046 17.7699 13.3576 17.6721 13.4924C17.5744 13.6272 17.4507 13.7411 17.3084 13.8274C17.166 13.9138 17.0078 13.9708 16.8431 13.9952C16.6784 14.0195 16.5105 14.0107 16.3493 13.9693C16.188 13.9279 16.0366 13.8547 15.904 13.754C15.7715 13.6533 15.6603 13.5271 15.5772 13.3829C15.494 13.2386 15.4406 13.0792 15.4199 12.914C15.3992 12.7488 15.4117 12.5811 15.4567 12.4208C15.7433 11.3033 16.58 10.5733 17.4442 10.1542C18.3108 9.73333 19.33 9.55583 20.2892 9.58667C21.2408 9.61667 22.2575 9.85667 23.0758 10.4017ZM20.8333 24.1667C21.2754 24.1667 21.6993 23.9911 22.0118 23.6785C22.3244 23.3659 22.5 22.942 22.5 22.5C22.5 22.058 22.3244 21.634 22.0118 21.3215C21.6993 21.0089 21.2754 20.8333 20.8333 20.8333C20.3913 20.8333 19.9674 21.0089 19.6548 21.3215C19.3423 21.634 19.1667 22.058 19.1667 22.5C19.1667 22.942 19.3423 23.3659 19.6548 23.6785C19.9674 23.9911 20.3913 24.1667 20.8333 24.1667Z" fill="#00010F"/>
</svg>
