<svg width="48" height="48" viewBox="0 0 48 48" fill="none" xmlns="http://www.w3.org/2000/svg">
<path d="M24.0001 1.5C20.3691 1.49918 16.8393 2.69606 13.9577 4.90511C11.0761 7.11417 9.00363 10.212 8.06149 13.7186C7.11934 17.2252 7.36015 20.9446 8.74658 24.3004C10.133 27.6562 12.5877 30.461 15.7301 32.28C17.1021 33.076 17.9601 34.296 17.9981 35.526C18.0085 35.8555 18.1273 36.1723 18.3358 36.4275C18.5444 36.6827 18.8313 36.8621 19.1521 36.938C19.8561 37.104 20.5721 37.234 21.3001 37.328C21.9461 37.41 22.5001 36.892 22.5001 36.24V26.918C21.8681 26.8485 21.2418 26.7342 20.6261 26.576C20.4352 26.5269 20.256 26.4407 20.0985 26.3223C19.941 26.2039 19.8084 26.0556 19.7082 25.886C19.608 25.7163 19.5422 25.5286 19.5145 25.3335C19.4869 25.1384 19.4979 24.9398 19.5471 24.749C19.5962 24.5582 19.6824 24.3789 19.8008 24.2214C19.9192 24.0639 20.0674 23.9313 20.2371 23.8311C20.4067 23.7309 20.5945 23.6651 20.7895 23.6375C20.9846 23.6098 21.1832 23.6209 21.3741 23.67C23.0966 24.1139 24.9035 24.1139 26.6261 23.67C26.8188 23.6145 27.0207 23.5982 27.2198 23.622C27.419 23.6459 27.6113 23.7094 27.7855 23.8089C27.9596 23.9084 28.1121 24.0419 28.2338 24.2013C28.3554 24.3607 28.4439 24.543 28.494 24.7372C28.544 24.9314 28.5546 25.1337 28.525 25.3321C28.4955 25.5305 28.4265 25.721 28.3221 25.8922C28.2177 26.0635 28.08 26.212 27.9171 26.3292C27.7543 26.4463 27.5696 26.5295 27.3741 26.574C26.7583 26.7329 26.1321 26.8479 25.5001 26.918V36.238C25.4977 36.3914 25.528 36.5434 25.589 36.6842C25.65 36.8249 25.7402 36.951 25.8538 37.0541C25.9673 37.1573 26.1015 37.235 26.2474 37.2822C26.3933 37.3295 26.5476 37.3451 26.7001 37.328C27.4223 37.235 28.1392 37.1049 28.8481 36.938C29.1688 36.8621 29.4557 36.6827 29.6643 36.4275C29.8728 36.1723 29.9916 35.8555 30.0021 35.526C30.0421 34.296 30.8981 33.076 32.2701 32.28C35.4124 30.461 37.8671 27.6562 39.2535 24.3004C40.64 20.9446 40.8808 17.2252 39.9386 13.7186C38.9965 10.212 36.924 7.11417 34.0424 4.90511C31.1608 2.69606 27.631 1.49918 24.0001 1.5Z" fill="#FF9900"/>
<path fill-rule="evenodd" clip-rule="evenodd" d="M18.0261 39.8C18.0628 39.6064 18.1373 39.422 18.2453 39.2572C18.3534 39.0924 18.4928 38.9505 18.6557 38.8396C18.8186 38.7287 19.0017 38.651 19.1946 38.6109C19.3876 38.5709 19.5865 38.5692 19.7801 38.606C22.5685 39.1351 25.4316 39.1351 28.2201 38.606C28.416 38.5629 28.6186 38.5595 28.8159 38.596C29.0131 38.6326 29.201 38.7083 29.3685 38.8188C29.536 38.9293 29.6796 39.0722 29.7908 39.2392C29.9021 39.4061 29.9787 39.5937 30.0162 39.7908C30.0536 39.9879 30.0512 40.1905 30.009 40.3866C29.9667 40.5828 29.8856 40.7684 29.7703 40.9326C29.6551 41.0969 29.508 41.2363 29.338 41.3427C29.1679 41.4491 28.9782 41.5202 28.7801 41.552C25.6216 42.1514 22.3785 42.1514 19.2201 41.552C18.8295 41.4778 18.4844 41.2516 18.2605 40.9231C18.0366 40.5946 17.9523 40.1906 18.0261 39.8ZM19.5081 44.688C19.5285 44.4921 19.5874 44.3021 19.6813 44.1289C19.7752 43.9557 19.9023 43.8027 20.0553 43.6786C20.2084 43.5546 20.3843 43.4619 20.5732 43.4058C20.7621 43.3498 20.9601 43.3315 21.1561 43.352C23.0469 43.5496 24.9532 43.5496 26.8441 43.352C27.04 43.3315 27.238 43.3498 27.4269 43.4059C27.6158 43.4619 27.7917 43.5546 27.9448 43.6787C28.0978 43.8027 28.2249 43.9557 28.3188 44.1289C28.4127 44.3021 28.4716 44.4921 28.4921 44.688C28.5125 44.8839 28.4942 45.082 28.4382 45.2708C28.3821 45.4597 28.2894 45.6357 28.1654 45.7887C28.0413 45.9417 27.8883 46.0688 27.7151 46.1627C27.542 46.2566 27.352 46.3155 27.1561 46.336C25.0578 46.5557 22.9423 46.5557 20.8441 46.336C20.6481 46.3155 20.4581 46.2567 20.2849 46.1628C20.1118 46.0689 19.9588 45.9418 19.8347 45.7887C19.7106 45.6357 19.6179 45.4597 19.5619 45.2709C19.5059 45.082 19.4876 44.8839 19.5081 44.688Z" fill="#FF9900"/>
</svg>
