<svg width="28" height="28" viewBox="0 0 28 28" fill="none" xmlns="http://www.w3.org/2000/svg">
<path d="M14 13.9999C14.6417 13.9999 15.1912 13.7713 15.6485 13.3139C16.1058 12.8566 16.3341 12.3075 16.3333 11.6666C16.3333 11.0249 16.1047 10.4754 15.6473 10.0181C15.19 9.56075 14.6409 9.33247 14 9.33325C13.3583 9.33325 12.8088 9.56192 12.3515 10.0193C11.8942 10.4766 11.6659 11.0257 11.6667 11.6666C11.6667 12.3083 11.8953 12.8578 12.3527 13.3151C12.81 13.7724 13.3591 14.0007 14 13.9999ZM14 25.2291C13.8444 25.2291 13.6889 25.1999 13.5333 25.1416C13.3778 25.0833 13.2417 25.0055 13.125 24.9083C10.2861 22.3999 8.16666 20.0713 6.76666 17.9223C5.36666 15.7733 4.66666 13.7658 4.66666 11.8999C4.66666 8.98325 5.60505 6.65964 7.48183 4.92909C9.35861 3.19853 11.5313 2.33325 14 2.33325C16.4694 2.33325 18.6426 3.19853 20.5193 4.92909C22.3961 6.65964 23.3341 8.98325 23.3333 11.8999C23.3333 13.7666 22.6333 15.7744 21.2333 17.9234C19.8333 20.0724 17.7139 22.4007 14.875 24.9083C14.7583 25.0055 14.6222 25.0833 14.4667 25.1416C14.3111 25.1999 14.1556 25.2291 14 25.2291Z" fill="#FF9900"/>
</svg>
