<svg width="40" height="40" viewBox="0 0 40 40" fill="none" xmlns="http://www.w3.org/2000/svg">
<path d="M9.8664 17.6H12V30.4H15.2V19.2H18.4V30.4H21.6V19.2H24.8V30.4H28V17.6H30.1328C30.7216 17.6 31.2 17.0112 31.2 16.4808C31.2 16.16 31.0232 15.7984 30.756 15.624L30.7576 15.5824L30.7408 15.5528L30.848 15.5265L20.8 10.3512V8.83765C22.4 9.68485 23.9608 8.22565 26.4 9.10325V5.76005C23.9592 4.88325 22.4 6.34165 20.8 5.49445V5.28005C20.8 5.01525 20.2952 4.80005 20 4.80005C19.7048 4.80005 19.2 5.01525 19.2 5.28005V10.3512L9.1528 15.516L9.3696 15.5328L9.6 15.5416V15.5433C8.8 15.7176 8.9792 16.1592 8.9792 16.48C8.9784 17.0112 9.2776 17.6 9.8664 17.6ZM11.2 31.2L8.8 33.6H31.2L28.8 31.2H11.2ZM28.8 18.4V30.4H29.508L29.8208 30.8425L31.9536 32.8416L32.708 33.6H39.2V18.4H28.8ZM33.6 28H31.2V25.6H33.6V28ZM33.6 23.2H31.2V20.8H33.6V23.2ZM36.8 28H35.2V25.6H36.8V28ZM36.8 23.2H35.2V20.8H36.8V23.2ZM10.4912 30.4H11.2V18.4H0.800003V33.6H7.2912L8.0448 32.9216L10.1784 30.8416L10.4912 30.4ZM4.8 28H3.2V25.6H4.8V28ZM4.8 23.2H3.2V20.8H4.8V23.2ZM8.8 28H6.4V25.6H8.8V28ZM8.8 23.2H6.4V20.8H8.8V23.2Z" fill="#F4F4F4"/>
</svg>
