<svg width="48" height="48" viewBox="0 0 48 48" fill="none" xmlns="http://www.w3.org/2000/svg">
<path d="M39 1.5H9C4.85775 1.5 1.5 4.85775 1.5 9V39C1.5 43.1423 4.85775 46.5 9 46.5H39C43.1423 46.5 46.5 43.1423 46.5 39V9C46.5 4.85775 43.1423 1.5 39 1.5ZM13.5 19.5H9.6825V22.875H13.5V25.125H9.6825V30.75H7.5V17.25H13.5V19.5ZM22.8563 30.75H20.5905L18.7372 25.125H17.8935V30.75H15.75V17.25H19.5C21.5685 17.25 23.25 19.0163 23.25 21.1875C23.25 22.8353 22.2803 24.2505 20.9093 24.8363L22.8563 30.75ZM31.5 19.5H27.6825V22.875H31.5V25.125H27.6825V28.5H31.5V30.75H25.5V17.25H31.5V19.5ZM40.5 19.5H36.6825V22.875H40.5V25.125H36.6825V28.5H40.5V30.75H34.5V17.25H40.5V19.5Z" fill="#FF9900"/>
<path d="M19.5 19.5H17.8928V22.875H19.5C20.3865 22.875 21.1073 22.1175 21.1073 21.1875C21.1073 20.2575 20.3865 19.5 19.5 19.5Z" fill="#FF9900"/>
</svg>
