<svg width="148" height="28" viewBox="0 0 148 28" fill="none" xmlns="http://www.w3.org/2000/svg">
<path d="M14 21.3208L9.15834 24.2375C8.94445 24.3736 8.72084 24.4319 8.4875 24.4125C8.25417 24.393 8.05 24.3153 7.875 24.1792C7.7 24.0431 7.56389 23.8727 7.46667 23.6682C7.36945 23.4636 7.35 23.2353 7.40834 22.9833L8.69167 17.4708L4.40417 13.7667C4.20972 13.5917 4.08839 13.3922 4.04017 13.1682C3.99195 12.9442 4.00634 12.7256 4.08334 12.5125C4.16111 12.2986 4.27778 12.1236 4.43334 11.9875C4.58889 11.8514 4.80278 11.7639 5.075 11.725L10.7333 11.2292L12.9208 6.03749C13.0181 5.80416 13.1689 5.62916 13.3735 5.51249C13.5781 5.39583 13.7869 5.33749 14 5.33749C14.2139 5.33749 14.4227 5.39583 14.6265 5.51249C14.8303 5.62916 14.9812 5.80416 15.0792 6.03749L17.2667 11.2292L22.925 11.725C23.1972 11.7639 23.4111 11.8514 23.5667 11.9875C23.7222 12.1236 23.8389 12.2986 23.9167 12.5125C23.9944 12.7264 24.0092 12.9453 23.961 13.1693C23.9128 13.3933 23.7911 13.5924 23.5958 13.7667L19.3083 17.4708L20.5917 22.9833C20.65 23.2361 20.6306 23.4648 20.5333 23.6693C20.4361 23.8739 20.3 24.0438 20.125 24.1792C19.95 24.3153 19.7458 24.393 19.5125 24.4125C19.2792 24.4319 19.0556 24.3736 18.8417 24.2375L14 21.3208Z" fill="#FF9900"/>
<path d="M44 21.3208L39.1583 24.2375C38.9444 24.3736 38.7208 24.4319 38.4875 24.4125C38.2542 24.393 38.05 24.3153 37.875 24.1792C37.7 24.0431 37.5639 23.8727 37.4667 23.6682C37.3694 23.4636 37.35 23.2353 37.4083 22.9833L38.6917 17.4708L34.4042 13.7667C34.2097 13.5917 34.0884 13.3922 34.0402 13.1682C33.9919 12.9442 34.0063 12.7256 34.0833 12.5125C34.1611 12.2986 34.2778 12.1236 34.4333 11.9875C34.5889 11.8514 34.8028 11.7639 35.075 11.725L40.7333 11.2292L42.9208 6.03749C43.0181 5.80416 43.1689 5.62916 43.3735 5.51249C43.5781 5.39583 43.7869 5.33749 44 5.33749C44.2139 5.33749 44.4227 5.39583 44.6265 5.51249C44.8303 5.62916 44.9812 5.80416 45.0792 6.03749L47.2667 11.2292L52.925 11.725C53.1972 11.7639 53.4111 11.8514 53.5667 11.9875C53.7222 12.1236 53.8389 12.2986 53.9167 12.5125C53.9944 12.7264 54.0092 12.9453 53.961 13.1693C53.9128 13.3933 53.7911 13.5924 53.5958 13.7667L49.3083 17.4708L50.5917 22.9833C50.65 23.2361 50.6306 23.4648 50.5333 23.6693C50.4361 23.8739 50.3 24.0438 50.125 24.1792C49.95 24.3153 49.7458 24.393 49.5125 24.4125C49.2792 24.4319 49.0556 24.3736 48.8417 24.2375L44 21.3208Z" fill="#FF9900"/>
<path d="M74 21.3208L69.1583 24.2375C68.9444 24.3736 68.7208 24.4319 68.4875 24.4125C68.2542 24.393 68.05 24.3153 67.875 24.1792C67.7 24.0431 67.5639 23.8727 67.4667 23.6682C67.3694 23.4636 67.35 23.2353 67.4083 22.9833L68.6917 17.4708L64.4042 13.7667C64.2097 13.5917 64.0884 13.3922 64.0402 13.1682C63.9919 12.9442 64.0063 12.7256 64.0833 12.5125C64.1611 12.2986 64.2778 12.1236 64.4333 11.9875C64.5889 11.8514 64.8028 11.7639 65.075 11.725L70.7333 11.2292L72.9208 6.03749C73.0181 5.80416 73.1689 5.62916 73.3735 5.51249C73.5781 5.39583 73.7869 5.33749 74 5.33749C74.2139 5.33749 74.4227 5.39583 74.6265 5.51249C74.8303 5.62916 74.9812 5.80416 75.0792 6.03749L77.2667 11.2292L82.925 11.725C83.1972 11.7639 83.4111 11.8514 83.5667 11.9875C83.7222 12.1236 83.8389 12.2986 83.9167 12.5125C83.9944 12.7264 84.0092 12.9453 83.961 13.1693C83.9128 13.3933 83.7911 13.5924 83.5958 13.7667L79.3083 17.4708L80.5917 22.9833C80.65 23.2361 80.6306 23.4648 80.5333 23.6693C80.4361 23.8739 80.3 24.0438 80.125 24.1792C79.95 24.3153 79.7458 24.393 79.5125 24.4125C79.2792 24.4319 79.0556 24.3736 78.8417 24.2375L74 21.3208Z" fill="#FF9900"/>
<path d="M104 21.3208L99.1583 24.2375C98.9444 24.3736 98.7208 24.4319 98.4875 24.4125C98.2542 24.393 98.05 24.3153 97.875 24.1792C97.7 24.0431 97.5639 23.8727 97.4667 23.6682C97.3694 23.4636 97.35 23.2353 97.4083 22.9833L98.6917 17.4708L94.4042 13.7667C94.2097 13.5917 94.0884 13.3922 94.0402 13.1682C93.9919 12.9442 94.0063 12.7256 94.0833 12.5125C94.1611 12.2986 94.2778 12.1236 94.4333 11.9875C94.5889 11.8514 94.8028 11.7639 95.075 11.725L100.733 11.2292L102.921 6.03749C103.018 5.80416 103.169 5.62916 103.374 5.51249C103.578 5.39583 103.787 5.33749 104 5.33749C104.214 5.33749 104.423 5.39583 104.627 5.51249C104.83 5.62916 104.981 5.80416 105.079 6.03749L107.267 11.2292L112.925 11.725C113.197 11.7639 113.411 11.8514 113.567 11.9875C113.722 12.1236 113.839 12.2986 113.917 12.5125C113.994 12.7264 114.009 12.9453 113.961 13.1693C113.913 13.3933 113.791 13.5924 113.596 13.7667L109.308 17.4708L110.592 22.9833C110.65 23.2361 110.631 23.4648 110.533 23.6693C110.436 23.8739 110.3 24.0438 110.125 24.1792C109.95 24.3153 109.746 24.393 109.513 24.4125C109.279 24.4319 109.056 24.3736 108.842 24.2375L104 21.3208Z" fill="#FF9900"/>
<path d="M134 21.3208L129.158 24.2375C128.944 24.3736 128.721 24.4319 128.487 24.4125C128.254 24.393 128.05 24.3153 127.875 24.1792C127.7 24.0431 127.564 23.8727 127.467 23.6682C127.369 23.4636 127.35 23.2353 127.408 22.9833L128.692 17.4708L124.404 13.7667C124.21 13.5917 124.088 13.3922 124.04 13.1682C123.992 12.9442 124.006 12.7256 124.083 12.5125C124.161 12.2986 124.278 12.1236 124.433 11.9875C124.589 11.8514 124.803 11.7639 125.075 11.725L130.733 11.2292L132.921 6.03749C133.018 5.80416 133.169 5.62916 133.373 5.51249C133.578 5.39583 133.787 5.33749 134 5.33749C134.214 5.33749 134.423 5.39583 134.626 5.51249C134.83 5.62916 134.981 5.80416 135.079 6.03749L137.267 11.2292L142.925 11.725C143.197 11.7639 143.411 11.8514 143.567 11.9875C143.722 12.1236 143.839 12.2986 143.917 12.5125C143.994 12.7264 144.009 12.9453 143.961 13.1693C143.913 13.3933 143.791 13.5924 143.596 13.7667L139.308 17.4708L140.592 22.9833C140.65 23.2361 140.631 23.4648 140.533 23.6693C140.436 23.8739 140.3 24.0438 140.125 24.1792C139.95 24.3153 139.746 24.393 139.512 24.4125C139.279 24.4319 139.056 24.3736 138.842 24.2375L134 21.3208Z" fill="#FF9900"/>
</svg>
