<svg width="40" height="40" viewBox="0 0 40 40" fill="none" xmlns="http://www.w3.org/2000/svg">
<path d="M31.6667 15.0001C31.6674 12.9916 31.1496 11.0169 30.1634 9.2672C29.1772 7.5175 27.756 6.05204 26.0373 5.01268C24.3186 3.97332 22.3608 3.39525 20.3532 3.33445C18.3456 3.27365 16.3563 3.73216 14.5779 4.6656C12.7995 5.59905 11.2922 6.97581 10.2019 8.66262C9.11163 10.3494 8.47527 12.2891 8.35446 14.294C8.23364 16.2989 8.63246 18.301 9.5123 20.1065C10.3921 21.912 11.7232 23.4598 13.3767 24.6001L8.33333 33.3334L12.0933 33.4884L14.1067 36.6667L19.8833 26.6601C19.9233 26.6601 19.96 26.6667 20 26.6667C20.04 26.6667 20.0767 26.6617 20.1167 26.6601L25.8933 36.6667L27.9467 33.5567L31.6667 33.3334L26.6233 24.6001C28.1793 23.5287 29.4515 22.0951 30.3301 20.4226C31.2087 18.7502 31.6674 16.8892 31.6667 15.0001ZM11.6667 15.0001C11.6667 13.3519 12.1554 11.7407 13.0711 10.3703C13.9868 8.99991 15.2883 7.9318 16.811 7.30107C18.3337 6.67034 20.0092 6.50531 21.6257 6.82686C23.2423 7.1484 24.7271 7.94207 25.8926 9.10751C27.058 10.2729 27.8517 11.7578 28.1732 13.3743C28.4948 14.9908 28.3297 16.6664 27.699 18.1891C27.0683 19.7118 26.0002 21.0133 24.6297 21.929C23.2593 22.8447 21.6482 23.3334 20 23.3334C17.7899 23.3334 15.6702 22.4554 14.1074 20.8926C12.5446 19.3298 11.6667 17.2102 11.6667 15.0001Z" fill="#F4F4F4"/>
<path d="M20 20C22.7614 20 25 17.7614 25 15C25 12.2386 22.7614 10 20 10C17.2386 10 15 12.2386 15 15C15 17.7614 17.2386 20 20 20Z" fill="#F4F4F4"/>
</svg>
